<svg xmlns="http://www.w3.org/2000/svg" width="621.905" height="203.638" viewBox="0 0 621.905 203.638"><g transform="translate(-.001 .001)"><path fill="#e61a27" d="M238.819,177.639c-23.141-14.907-54.547-17.523-105.195-3.471-53.995,12.688-72,20.822-95.64,4.494-9.083-8.021-12.339-20.936-9.908-39.538,5.64-30.326,20.881-59.509,47.954-91.881C91.142,30.4,105.16,15.951,123.668,10.148c14.186-3.64,12.859,7.508,11.143,9.1a13.728,13.728,0,0,0-7.206,1.82c-1.908,1.48-7.147,6.259-7.429,12.688-.406,9.842,9.779,7.793,14.172,2.39,4.735-6.089,11.733-17.75,6.228-28.618A16.172,16.172,0,0,0,129.334.078C112.386-.89,96.6,7.189,82.033,16.121c-31.859,22.131-57.344,52.8-71.764,86.365-8.313,20.253-15.832,49.265-4.562,72.878,8.719,16.384,26.819,25.087,48.414,23.267,15.146-1.591,33.46-6.486,45.778-9.442s75.37-24.634,96.088,13.088a27.98,27.98,0,0,1,24.106-13.659c14.155-1.306,34.575,4.1,49.445,15.019C264.582,196.187,250.536,185.206,238.819,177.639Z" data-name="Path 3101"/><path fill="#e61a27" d="M158.832,51.076c-11.793-7.737-35.5,7.055-54.48,32.428-17.36,22.759-24.857,49.211-16.7,61.444,12.135,14.393,34.664-6.542,44.245-17.748l1.236-1.31c6.515-7,11.548-15.419,16.421-23.5,0,0,4.478-7.4,4.692-7.738,2.767-.51,6.1-1.307,9.857-2.388-.054.169-14.371,24.236-12.911,36.181.455,3.644.108,16.957,13.105,21,17.323,2.9,31.156-10.525,43.359-22.473,0,0,2.079-1.989,3.256-3.125-.3,1.191-.686,2.781-.686,2.781-5.072,17.637,1.765,21.338,6.041,22.7,12.924,3.758,28.364-15.018,28.414-15.018-.4,5.914-1.571,10.806,4.664,14.733,5.884,2.107,11.84-1.105,16.367-4.121,16.306-11.491,29.442-29.478,40.052-45.025H299c-.08,0-16.7,24.09-27.492,29.325-.017,0-1.982,1.008-3.113.211-1.4-1.195-.849-3.68.016-5.44.054-.114,41.671-72.293,41.671-72.293H290.43s-2.146,3.473-2.321,3.7c-.132-.113-.447-.711-.665-1-12.174-16.84-39.742,9.063-60.5,39.1-7.991,11.55-18.164,24.555-28.713,33.942,0,0-15.628,14.326-22.305,4.033-2.441-4.325-1.69-10.647-.313-14.8,7.775-22.132,21.171-42.217,36.416-54.336,4.3-3.354,8.981-4.325,11.3-2.9,2.212,1.311,2.569,4.551,1.17,6.77a10.954,10.954,0,0,0-8.707,3.355c-4.555,4.779-6.138,9.388-4.69,13.713,7.036,10.013,21.069-9.786,20.39-21.848A12.95,12.95,0,0,0,225.5,51.019c-5.132-3.071-12.96-2.275-18.026.173-6.783,2.559-17.518,11.49-23.784,18.433C175.8,78.33,162.273,88,158.043,86.918c1.383-3.7,12.811-27.081.789-35.841Zm94.733,34.59c3.822-5.29,14.947-19.457,17.66-21.846,9.122-8.025,12.768-4.494,13.083-1.992-8.513,15.247-18.561,32.714-28.008,48.417.019-.056-2.956,4.494-2.956,4.494-4.172,6.37-8.373,11.833-15.226,15.643a4.415,4.415,0,0,1-3.66-.4,3.878,3.878,0,0,1-1.654-3.756c.411-4.891,5.391-19.851,20.761-40.561ZM146.671,94.826s-.172.514-.256.682c-.022,0-8.568,13.937-8.568,13.937-5.157,6.885-11.6,15.535-19.645,19.686-2.386.8-5.684,1.31-7.365-.794-3.563-4.268-1.727-10.185-.235-14.963l.529-1.707c4.277-11.6,11.063-21.848,17.669-31.349a.868.868,0,0,1,.334-.113.459.459,0,0,1,.054.171c4.145,7.964,11.917,11.66,17.73,13.369.035,0,.073.057.073.171a2.8,2.8,0,0,1-.32.909Zm8.1-16.44c-.038.114-3.806,8.761-3.806,8.761-.545.455-1.406.228-2.394,0l-1.692-.286c-5.312-1.649-9.318-5.177-10.554-9.386-1.7-8.193,5.3-14.622,8.379-16.953,2.959-2.05,7.559-3.131,10.23-1.025a10.743,10.743,0,0,1,2.272,7.17C157.2,70.363,156.061,74.516,154.766,78.386Zm248.4,26.4a11.567,11.567,0,0,0-11.186-6.429c-15.566,1.423-30.791,14.224-38.785,32.6-4.195,9.445-6.484,17.238-7.985,29.641,4.841-5.574,14.714-14.733,25.917-19.74a53.928,53.928,0,0,1,9.3-22.473c2.942-4.382,8.828-11.436,15.438-9.559,5.776,1.935,3.745,17.923-3.93,33.394a107.292,107.292,0,0,1-23.164,30.611c-7.775,6.6-19.278,14.564-29.341,8.421-6.339-3.753-9.572-11.607-8.889-21.733,3.029-28.73,16.107-53.194,34.823-81.071,19.3-25.886,40.57-52.455,69.227-66.623,5.845-2.958,11.258-3.64,15.937-1.82,0,0-26.9,14.792-39.723,42.158-3.262,6.942-7.8,16.327-3.23,24.634,2.387,4.323,6.626,4.665,10.039,4.437,15.718-3.642,25.873-18.32,34.17-31.745,4.81-10.184,9.086-20.311,9.086-31.576,0-1.365-.071-3.185-.186-4.552,7.509-3.981,22.908,3.072,22.908,3.072,12.033,3.984,37.655,23.613,46.3,27.366,4.216-4.892,11.144-12.287,15.045-15.986l-5.648-3.471c-9.041-5.519-18.6-10.754-28-15.93-21.362-11.662-38.75-7.566-47.6-4.38-3.478,1.251-6.656,2.332-6.656,2.332-6.567-7.168-17.339-6.487-25.275-4.552C403.215,10,376.716,29.968,348.306,64.617,327.42,91.755,314.464,115.2,307.558,138.35c-5.323,15.588-6.94,38.515,6.051,52.113,11.046,11.546,25.692,9.045,36.035,4.894,22.41-11.037,42.551-34.82,52.587-62.186,2.422-8.135,5.11-19.627.94-28.389ZM454.7,19.046c-2.966,34.022-29.412,53.993-35.956,55.584-3.965.8-10.732-.967-4.691-15.245,8.895-19.232,24.083-35.558,40.376-43.922a8.708,8.708,0,0,1,.271,3.584Zm156.874,4.322c-14.225,8.08-28.972,13.313-46.823,11.493-4.946,5.577-9.764,11.323-14.2,17.238,25.054,6.372,51.615-7.794,66.429-21.276A104.559,104.559,0,0,0,640.684.1,124.51,124.51,0,0,1,611.575,23.368ZM342.736,51.7h-18.66L313.55,68.8h18.656Z" data-name="Path 3102" transform="translate(-18.779 -.023)"/><path fill="#e61a27" d="M653.159,179.891c-2.006,1.365-4.825.316-3.772-2.813,2.626-7.965,13.063-24.2,13.063-24.2l29.071-51.561H671.609c-.947,1.555-2.97,5.125-2.97,5.125a27.354,27.354,0,0,0-4.81-5.684c-4.865-3.075-12-1.621-16.926,1.166-21.408,12.518-37.028,37.251-49.347,56.538,0,0-12.968,21.44-20.165,23.035-5.62.456-5.04-7.115-4.8-8.878,2.173-12.746,7.219-24.863,12.3-35.844a275.3,275.3,0,0,0,32.865-26.852c23.273-22.247,42.894-47.451,45.761-53.083a45.379,45.379,0,0,1-6.769.739c-17.9,24.976-54.544,61.275-65.652,66.678,4.921-11.836,36.714-68.329,63.769-95.352l4.258-4.1c6.584-6.429,13.4-13.028,18.72-14.109.561-.057,1.284,0,1.908,1.311.237,5.006-1.626,8.7-3.764,12.914l-3,6.145a69.5,69.5,0,0,0,7.031-1.709c3.233-6.085,6.815-12.914,5.495-21.048a6.04,6.04,0,0,0-4.811-5.064c-8.071-1.536-16.866,4.436-23.944,9.273l-.285.169c-36.383,28.5-67.1,69.58-93.964,125.677-1.947,1.477-9.468,3.242-10.746,2.388,2.652-5.46,5.992-12.8,7.663-20.766a55.213,55.213,0,0,0,.558-6.883c0-4.9-1.175-9.5-5.561-12.688-5.143-2.561-11.5-1.365-15.786.567-19.2,7.965-33.549,27.651-43.9,43.864-5.569,10.3-11.122,21.332-12.66,33.965-1.083,9.9,1.122,16.271,6.75,19.457,5.787,2.956,13.071-.117,15.932-1.594,19.451-10.241,33.042-30.778,43.754-49.553a62.75,62.75,0,0,0,10.7-1.365.271.271,0,0,1,.181.059c-.253.85-2.54,7.68-2.54,7.68-6.79,19.91-9.93,33.452-3.516,41.473,9.165,11.322,24.338-.4,36.68-15.874-2.649,18.546,6.962,21.45,14.29,20.028,8.417-2.275,17.8-11.266,22.148-15.873-1.4,5.4-1.018,15.077,6.639,16.043,5.247.97,9.175-1.884,13.719-4.332,16.3-8.876,35.814-38.453,40.88-47h-6.643c-7.2,10.886-16.367,25.155-27.895,31.929ZM506.842,177.91a8.966,8.966,0,0,1-1.411-5.032c-.2-11.156,11.8-31.133,20.276-42.017h.018c3.549,7.774,11.589,12.771,16.442,14.877-6.027,13.428-26.7,42.185-35.325,32.172Zm38.728-38.175c-.574.4-10.712-3.015-12.671-12.4-1.662-8.082,3.9-14.4,9.287-17.579a9.31,9.31,0,0,1,8.346-1.539c2.37,1.6,3.012,4.443,3.012,7.51a45.594,45.594,0,0,1-.47,5.577l-.048.4a75.776,75.776,0,0,1-7.457,18.034Zm81.312,34.591c-.009,0-1.924,1.706-1.924,1.706-2.735,2.446-5.549,5.062-8.946,3.753a3.4,3.4,0,0,1-1.757-2.561c-.155-7,3-13.482,6.053-19.8l.784-1.65C629.881,141.1,640.1,123.8,655.106,111.8c2.529-1.825,5.273-3.358,8.169-2.162a4.245,4.245,0,0,1,1.442,2.786,4.711,4.711,0,0,1-.48,1.536c-4.192,6.773-8.183,13.883-12.064,20.71C644.588,148.156,636.719,162.092,626.882,174.327Z" data-name="Path 3103" transform="translate(-107.26 -.669)"/></g></svg>