<?xml version="1.0" encoding="iso-8859-1"?>
<!-- Generator: Adobe Illustrator 19.0.0, SVG Export Plug-In . SVG Version: 6.00 Build 0)  -->
<svg version="1.1" id="Layer_1" xmlns="http://www.w3.org/2000/svg" xmlns:xlink="http://www.w3.org/1999/xlink" x="0px" y="0px"
	 viewBox="0 0 512 512" style="enable-background:new 0 0 512 512;" xml:space="preserve">
<path style="fill:#DB2B42;" d="M71.184,478.704l118.76-98.776H512V33.296H0v346.632h71.184V478.704z M78.736,120.44h354.528v10.664
	H78.736V120.44z M78.736,152.44h354.528v10.664H78.736V152.44z M78.736,184.44h354.528v10.664H78.736V184.44z M78.736,216.44
	h354.528v10.664H78.736V216.44z M78.736,248.44h354.528v10.664H78.736V248.44z M78.736,280.44h354.528v10.664H78.736V280.44z"/>
<g>
	<rect x="78.736" y="120.4" style="fill:#FFFFFF;" width="354.56" height="10.664"/>
	<rect x="78.736" y="152.4" style="fill:#FFFFFF;" width="354.56" height="10.664"/>
	<rect x="78.736" y="184.4" style="fill:#FFFFFF;" width="354.56" height="10.664"/>
	<rect x="78.736" y="216.4" style="fill:#FFFFFF;" width="354.56" height="10.664"/>
	<rect x="78.736" y="248.4" style="fill:#FFFFFF;" width="354.56" height="10.664"/>
	<rect x="78.736" y="280.4" style="fill:#FFFFFF;" width="354.56" height="10.664"/>
</g>
<g>
</g>
<g>
</g>
<g>
</g>
<g>
</g>
<g>
</g>
<g>
</g>
<g>
</g>
<g>
</g>
<g>
</g>
<g>
</g>
<g>
</g>
<g>
</g>
<g>
</g>
<g>
</g>
<g>
</g>
</svg>
