<svg xmlns="http://www.w3.org/2000/svg" width="450" height="450" viewBox="0 0 450 450"><path fill="#d52b1e" fill-rule="evenodd" d="M22.73,0C10.176,0,0,13.432,0,30V420c0,16.568,10.176,30,22.73,30H427.268C439.822,450,450,436.568,450,420V30c0-16.564-10.178-30-22.732-30Z" data-name="Path 52107"/><path fill="#fdc82f" fill-rule="evenodd" d="M224.539,200.992c6.123-45.277,26.308-126.938,64.8-126.938,44.942,0,97.747,150.963,97.734,275.946H345.632c0-131.088-32.108-249.2-55.212-249.207-24.1,0-45.22,80.343-45.22,233.418H203.812c0-153.075-20.993-233.418-45.222-233.418-23.061,0-55.146,118.141-55.146,249.207H62c.039-125.09,52.71-275.961,97.732-275.946,38.443.013,58.634,81.651,64.807,126.938" data-name="Path 52108"/><path fill="#fdc82f" fill-rule="evenodd" d="M400.955,339.34h1.894c1.59,0,3.048-.077,3.048-1.928,0-1.555-1.324-1.79-2.554-1.79h-2.388Zm-1.81-5.188h4.5c2.762,0,4.061,1.1,4.061,3.336,0,2.119-1.327,3-3.048,3.184l3.315,5.162h-1.941l-3.16-5.023h-1.917v5.023h-1.81Zm3.886,14.382a8.536,8.536,0,1,0-8.21-8.576A8.23,8.23,0,0,0,403.031,348.534Zm0-18.53A10,10,0,1,1,393,339.958,9.915,9.915,0,0,1,403.031,330Z" data-name="Path 52109"/></svg>