<?xml version="1.0" encoding="iso-8859-1"?>
<!-- Generator: Adobe Illustrator 19.0.0, SVG Export Plug-In . SVG Version: 6.00 Build 0)  -->
<svg version="1.1" id="Layer_1" xmlns="http://www.w3.org/2000/svg" xmlns:xlink="http://www.w3.org/1999/xlink" x="0px" y="0px"
	 viewBox="0 0 508 508" style="enable-background:new 0 0 508 508;" xml:space="preserve">
<circle style="fill:#FD8469;" cx="254" cy="254" r="254"/>
<path style="fill:#F9B54C;" d="M328.4,354c0,2.8-0.4,6-2.4,7.6c-4.8,4.8-12.8,5.2-18,0.4l-2.8-2.4c3.6,3.2,3.6,8.8,0.4,12.4
	l-8.8,8.8c-3.2,3.2-8.8,3.2-12,0l-5.6-5.6c3.6,3.6,3.6,10,0,13.2l-4.8,4.4c-3.6,3.2-9.2,3.2-12.8,0l-4.4-4.4c2.4,2.4,2.4,6.4,0,8.8
	l-4.8,4.8c-2.4,2.4-6.4,2.4-8.8,0l-11.2-6c0,0-0.4,0-0.8-0.4l-4-11.6c-0.8-2.4,0-5.2,1.6-6.8c3.6-3.6,3.6-8.8,0-12.4l-5.2-5.2
	c-3.2-3.2-8-3.6-11.6-0.8l-3.2,2.8l4.4-4.4c4.4-4,4.4-10.8,0-15.2l-4-4c-4.4-4.4-10.8-4.4-15.2,0l-5.2,5.2c3.6-3.6,3.6-9.6,0-13.2
	l-6.4-6.4c-3.6-3.6-9.2-3.6-12.8-0.4l-15.6,13.6l0,0c2-2.8,1.6-6.4-0.4-8.8l-4.8-4.8c-2.8-2.8-6.8-2.8-9.6,0l-0.8,0.8
	c-4-3.6-7.6-6.4-10.4-9.2l37.2-86.4c10.8,0,30.4-0.8,45.6-10c12.8-8,29.6-4.8,37.6,7.2c-1.6,0.8-3.2,1.6-4.8,2.4
	c-10.4,6.8-23.6,11.2-34,14c-8.4,2.4-14.4,9.6-15.2,18.4c-0.4,8.8-2.8,18-4.8,24c-1.6,4.8,0.4,9.6,4.8,12.4c2.4,1.2,4.8,2,7.6,2
	c3.6,0,6.8-1.2,9.6-3.6c9.6-8.4,23.2-21.6,22-27.6c0,0,12.8,2,15.6-1.2c0,0,63.2,48.8,78,78.4l0,0
	C327.2,344.8,328.4,349.6,328.4,354z"/>
<g>
	<path style="fill:#FFD05B;" d="M380.8,316.8c-12.4,8-51.2,32.4-53.6,27.2c-15.2-29.6-78.4-78-78.4-78c-2.8,3.2-15.6,1.2-15.6,1.2
		c1.2,6-12.4,19.6-22,27.6c-2.8,2.4-6,3.6-9.6,3.6c-2.4,0-5.2-0.8-7.6-2c-4.4-2.4-6-7.6-4.8-12.4c2-6,4.4-15.2,4.8-24
		c0.4-8.8,6.8-16,15.2-18.4c10.4-2.8,23.6-7.6,34-14c10-6.4,22.4-7.2,33.2-2c15.2,7.6,38.4,14,65.6,2.4L380.8,316.8z"/>
	<path style="fill:#FFD05B;" d="M229.2,376.8c3.6-3.6,3.6-8.8,0-12.4l-5.2-5.2c-3.2-3.2-8-3.2-11.6-0.8l-3.2,2.8l4.4-4.4
		c4-4,4-11.2,0-15.2l-4-4c-4-4-10.8-4-15.2,0l-5.2,4.8c3.6-3.6,3.6-9.6,0-13.2l-6.4-6.4c-3.6-3.6-9.2-3.6-12.8-0.4l-16,14.4
		c2.8-2.8,2.8-6.8,0-9.6l-4.8-4.8c-2.8-2.8-6.8-2.8-9.6,0L134,328c0.4,18.4,17.2,14.4,17.2,14.4c-1.2,22.4,24,21.2,24,21.2
		c-4.4,24,25.2,20,25.2,20C201.2,402,232,396,232,396l-4-12.4C226.8,381.2,227.2,378.4,229.2,376.8z"/>
</g>
<g>
	<path style="fill:#FFFFFF;" d="M153.2,332.8l-0.8,1.2c-2,2.4-5.6,2.4-7.6,0.4L142,332c-2.4-2-2.4-5.6-0.4-7.6l0.8-1.2
		c2-2.4,5.6-2.4,7.6-0.4l2.8,2.4C154.8,326.8,155.2,330.4,153.2,332.8z"/>
	<path style="fill:#FFFFFF;" d="M189.2,336.4l-1.6,1.6c-2.8,3.2-7.2,3.6-10.4,0.8l-3.6-3.2c-3.2-2.8-3.6-7.2-0.8-10.4l1.2-1.6
		c2.8-3.2,7.2-3.6,10.4-0.8l3.6,3.2C191.2,328.8,191.6,333.2,189.2,336.4z"/>
	<path style="fill:#FFFFFF;" d="M213.6,350.4l-1.2,1.6c-2.8,3.2-7.2,3.6-10.4,0.8l-3.6-3.2c-3.2-2.8-3.6-7.2-0.8-10.4l1.2-1.6
		c2.8-3.2,7.2-3.6,10.4-0.8l3.6,3.2C216,342.8,216.4,347.6,213.6,350.4z"/>
	<path style="fill:#FFFFFF;" d="M228,368.8l-1.2,1.2c-2,2.4-6,2.8-8.4,0.8l-3.2-2.4c-2.4-2-2.8-6-0.8-8.4l1.2-1.2
		c2-2.4,6-2.8,8.4-0.8l3.2,2.4C229.6,362.4,230,366.4,228,368.8z"/>
	<path style="fill:#FFFFFF;" d="M201.6,282.8l4-10c1.2-3.2-0.4-6.8-4-8l-7.6-2c-0.8,8-2.8,16-4.8,21.6c-0.4,1.2-0.4,2.8-0.4,4
		C194,290,199.6,287.6,201.6,282.8z"/>
	<polygon style="fill:#FFFFFF;" points="413.2,319.2 386.8,330.8 339.2,219.6 359.2,209.6 	"/>
</g>
<path style="fill:#324A5E;" d="M508,254c0-44.4-11.2-86-31.2-122l-125.6,61.6l72.4,147.2l80.4-42C506.4,284,508,269.2,508,254z"/>
<polygon style="fill:#FFFFFF;" points="168.8,219.6 121.2,330.8 94.8,319.2 148.8,209.6 "/>
<path style="fill:#324A5E;" d="M0,254c0,15.2,1.6,30,4,44.4l80.4,42l72.4-147.2L31.2,132C11.2,168,0,209.6,0,254z"/>
<g>
	<circle style="fill:#2B3B4E;" cx="437.6" cy="300" r="12"/>
	<circle style="fill:#2B3B4E;" cx="468" cy="283.6" r="12"/>
	<circle style="fill:#2B3B4E;" cx="68" cy="304" r="12"/>
	<circle style="fill:#2B3B4E;" cx="37.6" cy="287.6" r="12"/>
</g>
<g>
</g>
<g>
</g>
<g>
</g>
<g>
</g>
<g>
</g>
<g>
</g>
<g>
</g>
<g>
</g>
<g>
</g>
<g>
</g>
<g>
</g>
<g>
</g>
<g>
</g>
<g>
</g>
<g>
</g>
</svg>
