<?xml version="1.0" encoding="iso-8859-1"?>
<!-- Generator: Adobe Illustrator 19.0.0, SVG Export Plug-In . SVG Version: 6.00 Build 0)  -->
<svg version="1.1" id="Layer_1" xmlns="http://www.w3.org/2000/svg" xmlns:xlink="http://www.w3.org/1999/xlink" x="0px" y="0px"
	 viewBox="0 0 460 460" style="enable-background:new 0 0 460 460;" xml:space="preserve">
<g>
	<path style="fill:#C2001B;" d="M230,0C102.974,0,0,102.974,0,230c0,103.512,68.381,191.054,162.434,219.916l294.828-255.515
		C440.151,84.28,344.918,0,230,0z"/>
	<path style="fill:#940030;" d="M457.255,194.402L360,97.147l-14.903,17.755l-66.626-66.626L213,41l-37,26l-76,320.47l62.436,62.437
		C183.801,456.463,206.487,460,230,460c127.026,0,230-102.975,230-230C460,217.892,459.058,206.005,457.255,194.402z"/>
	<path style="fill:#FFAD9E;" d="M229.6,28l-10,10l10,10c27.1,0,49.147,22.047,49.147,49.147v73.844h20V97.147
		C298.747,59.019,267.728,28,229.6,28z"/>
	<path style="fill:#FFEDB5;" d="M160.453,97.147v73.844h20V97.147C180.453,70.047,202.5,48,229.6,48V28
		C191.472,28,160.453,59.019,160.453,97.147z"/>
	<polygon style="fill:#FFEDB5;" points="230,97.147 237.647,192.935 230,277.471 165,286.906 100,277.471 100,97.147 	"/>
	<polygon style="fill:#FFAD9E;" points="360,97.147 360,277.471 295,286.906 230,277.471 230,97.147 	"/>
	<polygon style="fill:#FFEDB5;" points="230,326.235 237.647,358.792 230,387.471 100,387.471 157.552,326.235 193.776,315.102 	"/>
	<polygon style="fill:#FFAD9E;" points="230,265 240,295.618 230,326.235 157.552,326.235 100,265 	"/>
	<polygon style="fill:#FF6161;" points="100,265 172.848,326.235 100,387.471 	"/>
	<polygon style="fill:#FFAD9E;" points="360,387.471 230,387.471 230,326.235 266.224,315.102 302.448,326.235 	"/>
	<polygon style="fill:#FF6161;" points="360,265 302.448,326.235 230,326.235 230,265 	"/>
	<polygon style="fill:#FF0F27;" points="360,387.471 287.152,326.235 360,265 	"/>
</g>
<g>
</g>
<g>
</g>
<g>
</g>
<g>
</g>
<g>
</g>
<g>
</g>
<g>
</g>
<g>
</g>
<g>
</g>
<g>
</g>
<g>
</g>
<g>
</g>
<g>
</g>
<g>
</g>
<g>
</g>
</svg>
