<?xml version="1.0" encoding="iso-8859-1"?>
<!-- Generator: Adobe Illustrator 19.0.0, SVG Export Plug-In . SVG Version: 6.00 Build 0)  -->
<svg version="1.1" id="Layer_1" xmlns="http://www.w3.org/2000/svg" xmlns:xlink="http://www.w3.org/1999/xlink" x="0px" y="0px"
	 viewBox="0 0 512 512" style="enable-background:new 0 0 512 512;" xml:space="preserve">
<g>
	<circle style="fill:#FD8469;" cx="256" cy="256" r="256"/>
	<path style="fill:#FD8469;" d="M512,256c0,91.45-47.956,171.748-120.143,216.966C352.52,497.705,305.882,512,256,512
		s-96.418-14.295-135.857-38.932C48.057,427.748,0,347.45,0,256C0,114.668,114.566,0,256,0C397.332,0,512,114.668,512,256z"/>
</g>
<path style="fill:#F9B54C;" d="M284.388,209.768c0-0.912,0.101-1.926,0-2.839c-0.203-4.258,1.825-7.807,4.968-10.037
	c-9.834-15.208-18.047-38.425-18.047-38.425h-31.531c0,0-12.369,35.992-24.84,47.449l39.946,12.673v0.608l1.014-0.304l1.014,0.304
	v-0.608L284.388,209.768z"/>
<path style="fill:#E6E9EE;" d="M288.038,310.647l17.438-28.794l-10.646-77.763l-39.338,3.346l-36.398-3.65l-2.028,0.203
	c0,0-17.033,35.08-18.351,38.425c-1.217,3.042,10.848,55.458,12.977,68.131h76.344V310.647z"/>
<polygon style="fill:#F1543F;" points="261.982,229.031 249.106,229.031 240.488,207.436 270.6,207.436 "/>
<polygon style="fill:#FF7058;" points="261.982,229.031 249.106,229.031 240.488,284.49 255.493,304.361 270.6,284.49 "/>
<g>
	<path style="fill:#FFFFFF;" d="M284.895,189.085c0,0,22.204,18.858-10.848,39.541l-18.554-20.886L284.895,189.085z"/>
	<path style="fill:#FFFFFF;" d="M226.091,189.085c0,0-22.204,18.858,10.848,39.541l18.554-20.886L226.091,189.085z"/>
</g>
<path style="fill:#324A5E;" d="M177.223,310.647c0.101-0.203,0.101-0.507,0.203-0.811c2.535-10.341,4.36-16.526,4.36-16.526
	l-23.015-52.518c-0.101-0.101-0.101-0.304-0.203-0.406l-7.503-17.134c-0.101-0.101-0.101-0.203-0.101-0.203
	c-12.775,28.388-20.074,58.398-23.927,87.598L177.223,310.647L177.223,310.647z"/>
<path style="fill:#2B3B4E;" d="M158.669,240.285c0,0.101,0.101,0.304,0.203,0.406c5.678,14.701,13.282,38.223,18.655,69.044
	c0,0.203,0.101,0.507,0.101,0.811h63.062l-4.562-6.083l-23.319-70.463l4.461-30.01l5.272-10.544l-0.101,0.101
	c-0.811,0.912-9.328,9.328-24.637,16.931c-11.659,5.88-27.273,11.152-46.638,12.471c0,0,0,0.101,0.101,0.203
	C151.674,224.266,154.715,230.147,158.669,240.285z"/>
<path style="fill:#324A5E;" d="M234.303,310.647h13.282c-32.342-69.348-25.042-117.101-25.042-117.101l-25.549,17.641l15.816,3.042
	l-15.816,6.59C208.247,263.503,222.036,291.891,234.303,310.647z"/>
<path style="fill:#2B3B4E;" d="M334.777,310.647h50.186c-3.853-29.199-11.254-59.209-23.927-87.598c0,0,0,0.101-0.101,0.203
	l-7.401,16.931c-0.101,0.101-0.101,0.101-0.101,0.203l-23.217,52.924c0,0,1.825,6.286,4.36,16.627
	C334.574,310.14,334.676,310.343,334.777,310.647z"/>
<path style="fill:#324A5E;" d="M275.973,304.463l-4.562,6.083h63.062c0-0.203,0.101-0.507,0.101-0.71
	c5.373-31.227,13.079-54.85,18.858-69.551c0-0.101,0-0.101,0.101-0.203c3.853-10.037,6.793-15.816,7.401-16.931
	c0.101-0.101,0.101-0.203,0.101-0.203c-19.365-1.318-35.08-6.691-46.739-12.572c-15.309-7.604-23.724-16.019-24.535-16.931
	l-0.101-0.101l5.272,10.544l4.36,30.01l-0.203,0.608L275.973,304.463z"/>
<path style="fill:#2B3B4E;" d="M264.516,310.647h13.282c12.166-18.655,25.955-47.145,37.411-89.828l-15.816-6.59l15.816-3.042
	l-25.549-17.641C289.559,193.445,296.859,241.299,264.516,310.647z"/>
<g>
	<path style="fill:#F9B54C;" d="M304.665,124.502c-0.608,7.604-3.346,13.789-6.185,13.789c-2.839,0-4.461-6.185-3.853-13.789
		c0.608-7.604,3.346-13.789,6.185-13.789C303.651,110.612,305.375,116.797,304.665,124.502z"/>
	<path style="fill:#F9B54C;" d="M207.335,124.502c0.608,7.604,3.346,13.789,6.185,13.789c2.737,0,4.461-6.185,3.853-13.789
		c-0.608-7.604-3.346-13.789-6.185-13.789C208.349,110.714,206.625,116.797,207.335,124.502z"/>
</g>
<path style="fill:#FFD05B;" d="M290.066,81.109c-2.535-5.576-8.314-9.125-14.701-9.125h-19.061h-19.061
	c-6.387,0-12.166,3.549-14.701,9.125c-6.185,13.484-7.401,36.905-7.503,52.721c0,10.544,4.055,20.683,11.457,28.49l5.982,6.286
	c5.475,5.88,12.572,10.139,20.48,12.369l3.346,0.912l3.346-0.912c7.908-2.23,15.005-6.489,20.48-12.369l5.982-6.286
	c7.401-7.807,11.457-18.047,11.457-28.49C297.467,118.013,296.25,94.593,290.066,81.109z"/>
<path style="fill:#11110F;" d="M302.333,67.929c-0.71-2.23-1.622-4.36-2.231-6.691c-0.406-1.521-0.71-3.042-1.521-4.461
	c-1.622-2.94-5.171-4.461-8.516-4.157c-3.346,0.304-6.387,2.23-8.618,4.664c0.507-3.143,0.608-6.59-0.912-9.429
	c-1.724-3.244-5.373-4.968-8.922-5.576c-3.549-0.71-7.198-0.406-10.848-0.811c-3.954-0.406-7.908-1.419-11.964-1.014
	c-3.346,0.304-6.286,2.129-9.53,2.94c-33.863,7.807-31.227,47.956-30.72,58.703c0.101,2.839,0.304,5.779,1.217,8.415
	c1.217,3.549,3.447,6.489,5.88,9.328c0.608-1.926,0.507-4.055,1.014-6.083c0.71-2.94,1.014-5.982,1.724-8.922
	c0.71-2.839,4.055-17.743,5.373-20.683c1.825-4.055,5.069-7.705,9.328-8.821c8.111-2.129,16.222,5.171,24.535,3.853
	c1.521-0.304,3.042-0.811,4.562-1.318c1.724-0.608,3.447-1.115,5.171-1.622c3.954-1.115,8.111-1.926,11.964-0.811
	c4.258,1.217,7.705,4.664,9.834,8.618c2.129,3.954,3.244,8.415,4.157,12.876c0.608,2.636,1.115,5.272,0.811,8.01
	c0,0.203,0,0.406-0.101,0.608c0.203,2.129-0.101,4.36,0.304,6.489c0.304,1.622,0.811,3.244,1.115,4.968
	c0.101,0.71,0.304,1.521,0.507,2.23c2.839-5.272,4.968-11.051,5.982-17.033c0.912-4.867,1.115-9.733,1.318-14.6
	C303.854,80.805,304.158,74.113,302.333,67.929z"/>
<path style="fill:#E6E9EE;" d="M132.722,278.528c-0.08-0.657-1.877-16.325,5.065-34.523c6.411-16.804,21.823-38.859,58.85-48.499
	l0.511,1.963c-36.147,9.412-51.185,30.851-57.435,47.179c-6.791,17.741-4.996,33.482-4.978,33.638L132.722,278.528z"/>
<path style="fill:#FFD05B;" d="M412.236,266.747l-20.379,206.219C352.52,497.705,305.882,512,256,512s-96.418-14.295-135.857-38.932
	l-20.48-206.219h312.573L412.236,266.747L412.236,266.747z"/>
<ellipse style="fill:#54C0EB;" cx="195.777" cy="196.385" rx="16.425" ry="12.673"/>
<g>
	<path style="fill:#FFFFFF;" d="M321.698,290.978c0.406,23.724,5.475,47.651,15.715,67.118
		C352.317,340.556,344.105,302.739,321.698,290.978z"/>
	<path style="fill:#FFFFFF;" d="M333.763,388.816c15.613,6.489,39.439-14.802,37.006-49.882
		C353.736,341.164,342.482,364.686,333.763,388.816L333.763,388.816z"/>
	<path style="fill:#FFFFFF;" d="M313.892,425.416L313.892,425.416c12.572,11.152,42.075-1.521,51.606-34.674l0,0l0,0
		C348.566,387.396,330.113,405.342,313.892,425.416z"/>
	<path style="fill:#FFFFFF;" d="M282.36,454.007L282.36,454.007c8.009,14.701,40.757,11.862,60.832-16.425l0,0l0,0
		C328.288,428.863,305.071,440.016,282.36,454.007z"/>
	<path style="fill:#FFFFFF;" d="M328.998,387.295c8.516-25.549-8.212-46.131-25.042-43.596
		C305.679,362.05,312.979,381.009,328.998,387.295z"/>
	<path style="fill:#FFFFFF;" d="M309.937,422.476c16.627-21.494,7.705-45.928-9.023-48.97l0,0
		C296.352,390.945,296.96,411.425,309.937,422.476z"/>
	<path style="fill:#FFFFFF;" d="M288.038,400.475L288.038,400.475c-10.037,15.005-16.83,34.775-8.415,49.375l0,0
		C303.145,434.744,302.739,408.688,288.038,400.475z"/>
	<path style="fill:#FFFFFF;" d="M271.411,457.353L271.411,457.353L271.411,457.353z"/>
	<path style="fill:#FFFFFF;" d="M271.411,457.353c-4.765,0.811-9.936,1.825-15.411,2.839c-5.475-1.014-10.646-2.028-15.411-2.839
		c1.521,1.622,3.346,3.143,5.373,4.664c-4.258,0.71-8.618,1.419-13.18,2.129c0.608,3.751,1.318,7.503,1.926,11.152
		c7.807-1.419,15.107-3.853,21.291-6.996c6.286,3.143,13.484,5.576,21.291,6.996c0.608-3.751,1.318-7.503,1.926-11.152
		c-4.562-0.608-8.922-1.318-13.18-2.129C268.065,460.496,269.89,458.975,271.411,457.353z"/>
	<path style="fill:#FFFFFF;" d="M190.302,290.978c-22.406,11.761-30.619,49.578-15.715,67.118
		C184.827,338.63,189.896,314.703,190.302,290.978z"/>
	<path style="fill:#FFFFFF;" d="M178.237,388.816L178.237,388.816c-8.719-24.029-19.973-47.55-37.006-49.882
		C138.798,374.013,162.725,395.203,178.237,388.816z"/>
	<path style="fill:#FFFFFF;" d="M198.109,425.416L198.109,425.416c-16.222-20.074-34.674-38.121-51.606-34.674l0,0l0,0
		C156.033,423.895,185.537,436.569,198.109,425.416z"/>
	<path style="fill:#FFFFFF;" d="M168.808,437.481L168.808,437.481L168.808,437.481c20.074,28.287,52.822,31.126,60.832,16.425l0,0
		C206.929,440.016,183.712,428.863,168.808,437.481z"/>
	<path style="fill:#FFFFFF;" d="M183.002,387.295c16.019-6.286,23.319-25.245,25.042-43.596
		C191.214,341.063,174.486,361.746,183.002,387.295z"/>
	<path style="fill:#FFFFFF;" d="M202.063,422.476c12.977-11.051,13.586-31.531,9.023-48.97l0,0
		C194.357,376.548,185.537,400.982,202.063,422.476z"/>
	<path style="fill:#FFFFFF;" d="M223.962,400.475L223.962,400.475c-14.701,8.212-15.107,34.269,8.415,49.375l0,0
		C240.792,435.251,233.999,415.48,223.962,400.475z"/>
	<path style="fill:#FFFFFF;" d="M240.589,457.353L240.589,457.353L240.589,457.353z"/>
</g>
<g>
</g>
<g>
</g>
<g>
</g>
<g>
</g>
<g>
</g>
<g>
</g>
<g>
</g>
<g>
</g>
<g>
</g>
<g>
</g>
<g>
</g>
<g>
</g>
<g>
</g>
<g>
</g>
<g>
</g>
</svg>
