<svg id="SvgjsSvg1001" width="288" height="288" xmlns="http://www.w3.org/2000/svg" version="1.1" xmlns:xlink="http://www.w3.org/1999/xlink" xmlns:svgjs="http://svgjs.com/svgjs"><defs id="SvgjsDefs1002"></defs><g id="SvgjsG1008"><svg xmlns="http://www.w3.org/2000/svg" width="288" height="288" viewBox="-60 -103.46 500 350"><path fill="#ffffff" d="M-60-103.46h500v350H-60z" class="colorfff svgShape"></path><path xmlns:cc="http://creativecommons.org/ns#" xmlns:dc="http://purl.org/dc/elements/1.1/" xmlns:inkscape="http://www.inkscape.org/namespaces/inkscape" xmlns:rdf="http://www.w3.org/1999/02/22-rdf-syntax-ns#" xmlns:sodipodi="http://sodipodi.sourceforge.net/DTD/sodipodi-0.dtd" xmlns:svg="http://www.w3.org/2000/svg" fill="#151594" d="M-20 2.657v137.758h43.508V90.677h30.235l11.752-30.11H23.508V32.615h51.105L85.76 2.661H-20M99.064 2.657l-.076 137.758h43.005V2.657H99.064M310.765 95.415l16.563-57.357 17.161 57.357h-33.724zm39.591-92.758h-44.651l-49.515 137.77h41.566l5.348-18.524h48.452l5.605 18.523H400L350.356 2.657M171.686 2.657v137.758h43.49V90.677h30.2l11.836-30.11h-42.036V32.615h51.123l11.23-29.954H171.686" class="color131a3c svgShape"></path></svg></g></svg>