<?xml version="1.0" encoding="iso-8859-1"?>
<!-- Generator: Adobe Illustrator 19.0.0, SVG Export Plug-In . SVG Version: 6.00 Build 0)  -->
<svg version="1.1" id="Layer_1" xmlns="http://www.w3.org/2000/svg" xmlns:xlink="http://www.w3.org/1999/xlink" x="0px" y="0px"
	 viewBox="0 0 512 512" style="enable-background:new 0 0 512 512;" xml:space="preserve">
<circle style="fill:#C2001B;" cx="256" cy="256" r="256"/>
<g>
	<path style="fill:#940030;" d="M430.039,231.858c-45.378,31.17-105.069,16.924-156.8,12.074
		c-57.291-4.406-142.698-19.401-183.644,25.452l233.67,233.667c92.181-25.04,163.687-100.274,183.337-194.551L430.039,231.858z"/>
	<polygon style="fill:#940030;" points="281.416,165.685 396.254,280.524 267.636,280.524 	"/>
</g>
<path style="fill:#71E2F0;" d="M269.791,159.93H99.987c-8.092,0-14.653,6.559-14.653,14.653v24.528l-19.192,19.192
	c-3.415,3.415-0.996,9.252,3.832,9.252h15.36v31.499c0,8.092,6.559,14.653,14.653,14.653h169.805
	c8.092,0,14.653-6.561,14.653-14.653v-84.471C284.444,166.49,277.885,159.93,269.791,159.93z"/>
<g>
	<rect x="113.778" y="193.939" style="fill:#366695;" width="142.222" height="10.343"/>
	<rect x="113.778" y="222.384" style="fill:#366695;" width="142.222" height="10.343"/>
</g>
<path style="fill:#FFC61B;" d="M249.863,341.333h169.806c8.092,0,14.653-6.559,14.653-14.653v-24.529l19.192-19.192
	c3.415-3.415,0.996-9.252-3.832-9.252h-15.358v-31.497c0-8.092-6.559-14.653-14.653-14.653H249.865
	c-8.092,0-14.653,6.561-14.653,14.653v84.471C235.21,334.774,241.769,341.333,249.863,341.333z"/>
<g>
	<rect x="267.636" y="264.189" style="fill:#366695;" width="142.222" height="10.343"/>
	<rect x="267.636" y="292.633" style="fill:#366695;" width="142.222" height="10.343"/>
</g>
<g>
</g>
<g>
</g>
<g>
</g>
<g>
</g>
<g>
</g>
<g>
</g>
<g>
</g>
<g>
</g>
<g>
</g>
<g>
</g>
<g>
</g>
<g>
</g>
<g>
</g>
<g>
</g>
<g>
</g>
</svg>
