<svg xmlns="http://www.w3.org/2000/svg" xmlns:xlink="http://www.w3.org/1999/xlink" width="66" height="76" viewBox="0 0 66 76">
  <defs>
    <linearGradient id="linear-gradient" x1="0.888" y1="0.133" x2="0.223" y2="0.823" gradientUnits="objectBoundingBox">
      <stop offset="0" stop-color="#7b6138"/>
      <stop offset="0.11" stop-color="#947742"/>
      <stop offset="0.35" stop-color="#d4af5b"/>
      <stop offset="0.5" stop-color="#ffd56c"/>
      <stop offset="1" stop-color="#7b6138"/>
    </linearGradient>
  </defs>
  <path id="gold_mobile_logo" data-name="gold mobile logo" d="M56.5,156.457l-.677-.539-.2.435.866.132Zm28.066,26.935v-.264a6.633,6.633,0,0,0-.073-.968h-.75c.024.338.049.629.049.968v1.694h.774c0-.949.3-2.029,1.111-1.913a5.239,5.239,0,0,0-.073-.793C85.017,182.16,84.73,182.689,84.569,183.392Zm1.493-4.752a.773.773,0,0,0,.132-.473.676.676,0,0,0-.071-.32.643.643,0,0,0-.2-.226.863.863,0,0,0-.3-.132,1.427,1.427,0,0,0-.358-.044H83.91v2.864h.764v-1.134h.16a.542.542,0,0,1,.183.026.313.313,0,0,1,.132.1.751.751,0,0,1,.111.189,3.117,3.117,0,0,1,.11.3l.164.518h.792l-.28-.781c-.036-.087-.065-.167-.088-.237a1.381,1.381,0,0,0-.075-.185.517.517,0,0,0-.1-.132.338.338,0,0,0-.147-.078v-.008A.685.685,0,0,0,86.062,178.64Zm-.681-.148a.343.343,0,0,1-.132.1.585.585,0,0,1-.181.038h-.392v-.65h.2a1.773,1.773,0,0,1,.211.013.608.608,0,0,1,.177.045.3.3,0,0,1,.124.1.272.272,0,0,1,.046.163A.292.292,0,0,1,85.38,178.492Zm-20.1,12.461c-.147-.132-.333-.07-.519.123a1.5,1.5,0,0,1,.528.283C65.4,191.192,65.41,191.07,65.277,190.954ZM60.7,186.866c-.236.208-.462.522-.355.644.132.144.385.042,1.056-.365a.994.994,0,0,0-.112-.156C61.017,186.675,60.869,186.718,60.7,186.866Zm27.807-4.412c0-.661-.459-1.065-1.282-1.065a2.336,2.336,0,0,0-.99.193,1.843,1.843,0,0,0-.242.654,2.656,2.656,0,0,1,1.056-.218c.363,0,.66.155.66.58,0,.46-.285.793-1.837,1.694a3.037,3.037,0,0,0,.049.529h2.561a2.929,2.929,0,0,0,.145-.629H86.448C87.537,183.823,88.508,183.433,88.508,182.454Zm2.088.254a2.275,2.275,0,0,0-.442.423,2.236,2.236,0,0,0,.442.423,2.166,2.166,0,0,0,.442-.423,2.2,2.2,0,0,0-.442-.423Zm4.437-.254c0-.661-.459-1.065-1.28-1.065a2.339,2.339,0,0,0-.991.193,1.842,1.842,0,0,0-.242.654,2.656,2.656,0,0,1,1.063-.218c.363,0,.653.155.653.58,0,.46-.285.793-1.837,1.694a3.035,3.035,0,0,0,.049.529h2.562a3.009,3.009,0,0,0,.145-.629H92.973C94.062,183.823,95.032,183.433,95.032,182.454Zm.66-2.366a1.071,1.071,0,0,0,.4.208,1.938,1.938,0,0,0,1.023,0,1.082,1.082,0,0,0,.4-.208.925.925,0,0,0,.256-.353,1.3,1.3,0,0,0,.09-.51v-1.78H97.09V179.1a1.567,1.567,0,0,1-.022.264.713.713,0,0,1-.078.222.406.406,0,0,1-.15.152.556.556,0,0,1-.484,0,.405.405,0,0,1-.15-.152.712.712,0,0,1-.078-.222,1.568,1.568,0,0,1-.022-.264v-1.652h-.767v1.78a1.3,1.3,0,0,0,.09.51.925.925,0,0,0,.261.353Zm-5.107,1.3a1.533,1.533,0,0,0-1.691,1.524,1.71,1.71,0,1,0,3.383,0A1.534,1.534,0,0,0,90.585,181.388Zm0,3.195c-.216,0-.894-.441-.894-1.622a.9.9,0,1,1,1.789,0C91.48,184.143,90.8,184.583,90.585,184.583Zm7.443-2.129c0-.661-.459-1.065-1.28-1.065a2.344,2.344,0,0,0-.991.193,1.843,1.843,0,0,0-.242.654,2.662,2.662,0,0,1,1.064-.218c.362,0,.652.155.652.58,0,.46-.285.793-1.836,1.694a3,3,0,0,0,.048.529H98a3.009,3.009,0,0,0,.145-.629H95.97C97.053,183.823,98.029,183.433,98.029,182.454ZM52.845,167.836c.306,0,.528-.078.528-.345s-.213-.367-.519-.371-.528.086-.528.354S52.535,167.831,52.845,167.836Zm2.714,11.416c-.282.141-.582.386-.51.529.086.172.363.14,1.11-.083a.967.967,0,0,0-.069-.18C55.906,179.145,55.76,179.149,55.559,179.252Zm35.037.99a1.468,1.468,0,0,0,.537-.247,1.172,1.172,0,0,0,.354-.445,1.625,1.625,0,0,0,.132-.679,1.652,1.652,0,0,0-.132-.69,1.08,1.08,0,0,0-.348-.439,1.377,1.377,0,0,0-.536-.227,3.258,3.258,0,0,0-.686-.066H88.869v2.862h1.043a2.891,2.891,0,0,0,.684-.071Zm-.957-2.227h.3a.931.931,0,0,1,.66.218,1.027,1.027,0,0,1,0,1.3.923.923,0,0,1-.66.218h-.3Zm23.833-17.074c-2.162-20.738-23.055-32.4-42.277-25.507-17.7,6.163-28.232,25.415-21.512,43.408,7.15,19.866,30.579,29.078,49.858,30.605,0,0,.333-2.079.554-3.443a3.04,3.04,0,0,0-2.453-3.809,65.162,65.162,0,0,1-11.328-3.569C101.937,193.295,115.286,178.223,113.471,160.941ZM54.11,156.128l.792.116.354-.779-.616-.49.405-.891,2.612,2.154-.277.609c-.251.552-.475.661-1.188.552l-2.5-.354Zm-1.041,2.8.5.164a.763.763,0,0,1-.314-.883c.108-.326.417-.642,1.093-.42l1.452.477-.3.908-1.224-.4c-.272-.089-.416-.111-.467.048-.088.264.6.55,1.527.855l-.3.908-2.266-.745Zm2.467,12.853a3.852,3.852,0,0,1-.432.625,3.818,3.818,0,0,1-.6-.46,3.515,3.515,0,0,1,.432-.625,3.458,3.458,0,0,1,.6.46ZM52.263,161.77c.152-.661.506-.978,1.152-.831l.759.173.079-.35a6.01,6.01,0,0,1,.688.2l-.069.3.256.058a2.143,2.143,0,0,1,.279,1.044l-.81-.184a4.309,4.309,0,0,1-.11.784,2.151,2.151,0,0,1-.66-.295,5.536,5.536,0,0,1,.17-.626l-.642-.147a.351.351,0,0,0-.453.315,1.942,1.942,0,0,0-.048.381,2.917,2.917,0,0,1-.623-.254A1.669,1.669,0,0,1,52.263,161.77Zm-.4,2.706,1.279.167c.284.036.429.03.45-.132.036-.28-.69-.427-1.662-.552l.123-.948,3.408.441-.117.945-1.562-.2a.758.758,0,0,1,.473.808c-.044.341-.289.71-.994.619l-1.514-.2Zm1.014,1.665c.83.013,1.232.513,1.217,1.363s-.432,1.322-1.262,1.312-1.233-.5-1.218-1.353.43-1.336,1.263-1.322Zm-1.188,3.333,1.521-.132c.334-.029.569-.073.853-.122l.079.925a5.877,5.877,0,0,1-.731.132c.528.2.834.5.861.814a5.931,5.931,0,0,1-.945.153c-.066-.772-.088-.925-1.08-.867l-.475.041Zm.243,2.4,2.356-.375.149.944-2.356.375Zm.434,2.531a3.169,3.169,0,0,1-.1-.847,3.363,3.363,0,0,1,.614-.305,4.5,4.5,0,0,0,.1.875c.069.283.1.329.154.316.218-.053-.317-1.129.578-1.346.553-.132.945.248,1.135,1.034a3.464,3.464,0,0,1,.075.759,3.394,3.394,0,0,1-.66.038,2.763,2.763,0,0,0-.062-.64c-.051-.213-.115-.272-.165-.264-.218.053.326,1.125-.546,1.336-.66.164-.979-.315-1.134-.956Zm.936,3.1c-.333-.925-.107-1.541.66-1.819a1.189,1.189,0,0,1,1.62.838,1.067,1.067,0,0,1-.735,1.509,1.3,1.3,0,0,1-.368-.065,6.888,6.888,0,0,1-.383-1.265c-.154.107-.226.275-.124.558a4.5,4.5,0,0,0,.38.818,2.505,2.505,0,0,1-.714.132,3.584,3.584,0,0,1-.339-.707Zm1.3,2.86.453-.226a.765.765,0,0,1-.828-.42c-.219-.44.071-.884.61-1.153a1.29,1.29,0,0,1,1.943.712l.9-.448.425.856-3.076,1.535Zm1.8,3.066,1.98-1.342-.457-.673.711-.484,1.5,2.215a3.8,3.8,0,0,1-.764.4l-.429-.633-1.98,1.342Zm2.2,2.254-.378.292-.583-.757,1.209-.934c.264-.2.438-.369.651-.563l.569.738a6.025,6.025,0,0,1-.543.51,1.149,1.149,0,0,1,1.163.218,5.956,5.956,0,0,1-.711.641C59.506,185.22,59.4,185.1,58.6,185.689Zm1.452,2.511.379-.334a.774.774,0,0,1-.907-.194c-.325-.37-.156-.874.3-1.272a1.3,1.3,0,0,1,2.08.213c.18.2.367.448.574.728l-1.789,1.572Zm1.9,2.045-.5-.5,1.233-2.177.71.708-.813,1.312.017.017,1.3-.825.676.674-1.533.925a.791.791,0,0,1-1.089-.143Zm2.944,2.621a3.583,3.583,0,0,1-.639-.451c-.739-.649-.841-1.3-.3-1.914a1.187,1.187,0,0,1,1.823-.054,1.061,1.061,0,0,1,.088,1.677,1.319,1.319,0,0,1-.354.122,6.524,6.524,0,0,1-.948-.919c-.083.168-.065.35.161.549a4.763,4.763,0,0,0,.729.529,2.447,2.447,0,0,1-.561.461Zm.611.529,2.134-2.7.747.593-2.133,2.7Zm4.174,1.944a.76.76,0,0,1-.375-.833l-.777,1.146-.829-.564,1.824-2.688,1.2.814a1.172,1.172,0,0,1,.442,1.746.992.992,0,0,1-1.481.381Zm1.989,2.317.264-.436a.771.771,0,0,1-.924.1c-.422-.251-.418-.782-.111-1.3a1.3,1.3,0,0,1,2.043-.441c.235.14.487.312.772.515L72.5,198.144Zm3.2,1.718a2.823,2.823,0,0,1-.6-.221c-.87-.457-1.106-1.057-.726-1.784s1.008-.875,1.88-.418a3.83,3.83,0,0,1,.626.42,2.589,2.589,0,0,1-.438.58,2.572,2.572,0,0,0-.52-.365c-.364-.192-.544-.021-.68.237s-.172.5.191.694a3.788,3.788,0,0,0,.7.278,2.53,2.53,0,0,1-.436.579Zm2.447,1.216c-.339-.156-.433-.293-.437-.584l-.011-.973-.5,1.094-.869-.4,1.434-3.127.869.4-.932,2.033L78,198.247l.924.427-1.08.728.067,1.434C77.722,200.769,77.425,200.638,77.322,200.591Zm2.145.867.189-.471a.768.768,0,0,1-.9.238c-.457-.182-.528-.708-.312-1.268.4-1,1.109-1.09,1.951-.752.253.1.528.231.842.389l-.886,2.219Zm3.812,1.171c-.272.8-.854,1.072-1.861.727a1.908,1.908,0,0,1-.6-.3,2.885,2.885,0,0,1,.149-.661,4.84,4.84,0,0,0,.568.241c.638.217.784-.132.845-.319l.1-.3a.766.766,0,0,1-.883.283c-.465-.159-.57-.679-.376-1.249a1.3,1.3,0,0,1,1.91-.853c.257.089.54.2.861.345Zm3.235-.141a1.293,1.293,0,0,1-.264.264A6.881,6.881,0,0,1,85,202.325c0,.188.09.344.379.427a4.749,4.749,0,0,0,.886.169,2.524,2.524,0,0,1-.312.661,3.488,3.488,0,0,1-.771-.132c-.945-.264-1.312-.813-1.086-1.6a1.188,1.188,0,0,1,1.626-.826,1.058,1.058,0,0,1,.789,1.468ZM84.99,197.9a66.909,66.909,0,0,1-14.6-8.459c-6.159-4.8-11.075-11.564-12.2-19.365C55.621,153.391,70.125,138.119,87,140.207c15.605,1.79,25.686,17.805,21.465,32.834C105.381,184.481,95.8,193.468,84.99,197.9Zm15.133-20.231a1.644,1.644,0,0,0-.974-.229h-.907v2.866H99v-1H99.3a1.286,1.286,0,0,0,.838-.245.947.947,0,0,0-.012-1.393Zm-.49.887a.321.321,0,0,1-.1.124.4.4,0,0,1-.149.066.921.921,0,0,1-.185.018H99v-.782h.2a.833.833,0,0,1,.185.02.4.4,0,0,1,.149.063.315.315,0,0,1,.1.119.405.405,0,0,1,.037.185A.416.416,0,0,1,99.633,178.56Zm-44.74-1.829c-.066-.185-.257-.222-.513-.145a1.519,1.519,0,0,1,.323.5C54.882,177.005,54.952,176.9,54.892,176.73Zm15.3,17.167-.323-.219-.348.51.363.247a.293.293,0,0,0,.442-.074C70.433,194.211,70.412,194.045,70.194,193.9Zm8.333-42.256a.273.273,0,0,0-.066.009.731.731,0,0,0,.277.415.264.264,0,0,0-.211-.424Zm1.98,32.046a2.191,2.191,0,0,0,.053.509H77.724c-.378,0-.619-.087-.619-.436v-.968H78a3,3,0,0,0,.145-.629H77.107c0-.3.025-.566.048-.871a1.884,1.884,0,0,0-.822.5v.365h-.459a5.96,5.96,0,0,0-.048.629h.5v1.016a.923.923,0,0,0,1.02,1.016h3.864c.473,0,.836-.389,1.188-1.265v1.265h.774V182.16c-.348-.029-.668-.049-1.015-.049-.965,0-1.651.4-1.651,1.576Zm1.088.509c-.2,0-.29-.264-.29-1.016,0-.387.189-.484.725-.484h.362c-.17.53-.4,1.5-.795,1.5Zm1.663-6.4a1.2,1.2,0,0,0-.45-.295,1.93,1.93,0,0,0-1.245,0,1.188,1.188,0,0,0-.449.295,1.232,1.232,0,0,0-.273.467,2.117,2.117,0,0,0,0,1.237,1.266,1.266,0,0,0,.275.469,1.222,1.222,0,0,0,.45.3,1.91,1.91,0,0,0,1.238,0,1.2,1.2,0,0,0,.451-.3,1.269,1.269,0,0,0,.276-.469,2.146,2.146,0,0,0,0-1.237,1.249,1.249,0,0,0-.273-.467Zm-.461,1.424a.96.96,0,0,1-.115.295.576.576,0,0,1-.994,0,1,1,0,0,1-.115-.295,1.547,1.547,0,0,1-.037-.342,1.588,1.588,0,0,1,.037-.352.951.951,0,0,1,.115-.292.584.584,0,0,1,.2-.2.627.627,0,0,1,.591,0,.58.58,0,0,1,.2.2.926.926,0,0,1,.115.292,1.588,1.588,0,0,1,.037.352A1.546,1.546,0,0,1,82.8,179.222Zm-4.488,1.088.378-2.2h.008l.407,2.2h.982l.64-2.87H79.98l-.378,2.209h-.008l-.4-2.2h-.969l-.387,2.2h-.008l-.37-2.2h-.78l.636,2.864Zm-5.478,3.373c0,.8.29,1.19.677,1.19.474,0,.853-.419,1.209-1.315v1.268h.772V182.16c-.347-.029-.667-.049-1.015-.049-.961,0-1.647.4-1.647,1.576Zm1.088.509c-.2,0-.289-.264-.289-1.016,0-.387.187-.484.725-.484h.362c-.176.534-.405,1.5-.8,1.5Zm12.747-6.752v2.87h1.939v-.567H87.417v-2.3Zm-7-25.916a.264.264,0,0,0,.172.247.733.733,0,0,0,.066-.3.748.748,0,0,0-.033-.2.264.264,0,0,0-.207.262ZM68.326,178.65v-.58h1.081l.227-.625h-2.2v2.866h.892v-1.036h.642l.228-.628Zm10.812-27.9a.264.264,0,0,0,.479.152.729.729,0,0,0-.446-.155Zm.292.919.038-.279a.074.074,0,0,0-.04-.077l-.253-.124a.075.075,0,0,0-.086.016l-.2.2a.073.073,0,0,0-.012.086l.132.249a.071.071,0,0,0,.078.038l.277-.048A.078.078,0,0,0,79.43,151.663Zm-.941-.451a.27.27,0,0,0,.1.021.264.264,0,0,0,.264-.264.249.249,0,0,0-.037-.132.724.724,0,0,0-.33.375Zm.878.761a.264.264,0,0,0-.264.23c.022,0,.044.007.066.007a.732.732,0,0,0,.411-.132.264.264,0,0,0-.214-.1Zm-6.877,32.9-1.272-.679a1.66,1.66,0,0,0,1.249-1.512,1.49,1.49,0,0,0-1.692-1.486,1.616,1.616,0,0,0-1.716,1.644,2.207,2.207,0,0,0,1.46,1.864l2.455,1.283c0-.567-.067-.891-.483-1.114Zm-1.482-.793-.04-.021c-.465-.247-1.088-.624-1.088-1.311a.845.845,0,0,1,.894-.925c.541,0,.87.382.87,1.049a1.631,1.631,0,0,1-.636,1.209Zm8.434,15.9c-.117.293-.177.675-.026.736.177.07.363-.132.774-.8a1.067,1.067,0,0,0-.172-.089c-.387-.153-.492-.052-.576.157Zm.792-36.927.381-.219.081.141.078-.045-.219-.365-.078.045.082.141-.381.218Zm4.092,10.4a.446.446,0,0,1-.154-.272.321.321,0,0,1,.15-.287c.1-.07.191-.14.281-.217a.255.255,0,0,0,.087-.2.107.107,0,0,0-.132-.09.456.456,0,0,0-.1.028.377.377,0,0,1,.186-.188.264.264,0,0,1,.264.009.177.177,0,0,1,.059.233.925.925,0,0,1-.152.251c-.021.025-.042.048-.065.071a.64.64,0,0,0-.124.271c.013-.015.025-.032.04-.046a5.477,5.477,0,0,0,.446-.464.319.319,0,0,1,.036-.033.379.379,0,0,1-.012.049c-.033.1-.067.2-.108.3a1.99,1.99,0,0,1-.174.337,2.562,2.562,0,0,0,.277-.316,1.964,1.964,0,0,1,.12-.218.578.578,0,0,1,.123-.132.191.191,0,0,1,.253-.017.229.229,0,0,1,.051.233.467.467,0,0,1-.083.19V172.9c0-.1-.05-.132-.123-.1a.373.373,0,0,0-.194.223c-.026.078-.05.155-.082.231a.615.615,0,0,1-.19.276.516.516,0,0,1-.528.034,6.462,6.462,0,0,1-.6.576c.07.017.14.03.211.042a1.98,1.98,0,0,0,.189-.174.765.765,0,0,1,.594-.25c-.038.048-.078.09-.114.132s-.067.1-.107.141a1.288,1.288,0,0,1-.172.168l-.04.024.144.007a1.559,1.559,0,0,1,.727-.554c.173-.049.321.05.469.033a1.2,1.2,0,0,0,.315-.074.539.539,0,0,0,.272-.307c.05-.123.037-.2-.025-.242a.278.278,0,0,0-.318.151.177.177,0,0,0,.017.176c.028.019.061,0,.117-.061l.022-.017a.228.228,0,0,1-.011.041.264.264,0,0,1-.12.141.117.117,0,0,1-.143-.02c-.176-.114-.061-.381.034-.488a.46.46,0,0,1,.483-.048l.025.013c.045-.067.081-.132.12-.194a.224.224,0,0,1,.007.185,2.3,2.3,0,0,1-.1.23c.057-.036.111-.069.17-.11a.843.843,0,0,1-.294.477l.1.022a.543.543,0,0,1-.345.284,1.079,1.079,0,0,1-.252.007c-.132,0-.264-.034-.413-.041a.909.909,0,0,0-.585.225,1.152,1.152,0,0,0-.181.17h.182a1.754,1.754,0,0,1,.653-.231.4.4,0,0,1,.313.086h0a3.445,3.445,0,0,0,.77-.3A2.012,2.012,0,0,0,88,172.307a5.535,5.535,0,0,0,.145-3h0a.22.22,0,0,1-.088.073.158.158,0,0,1-.2-.054,2.418,2.418,0,0,1-.161-.264.375.375,0,0,1,.276.073.2.2,0,0,0,.143.056h0c-.024-.106-.051-.214-.082-.325h0c-.041-.03-.077-.071-.116-.107-.044.079-.09.168-.193.193-.033-.181-.1-.336-.276-.369.013-.016.017-.026.024-.029a.853.853,0,0,1,.44-.087h0c-.034-.1-.073-.21-.114-.319h0a2.2,2.2,0,0,0-.351.112.957.957,0,0,1,.264-.326h0c-.272-.65-.713-1.539-1.329-2.7l-.061-.016c-.132-.037-.207,0-.2.12a.546.546,0,0,0,.216.371c.1.074.19.143.281.222a.883.883,0,0,1,.292.4.679.679,0,0,1-.111.624.844.844,0,0,0-.2-.592c-.091-.1-.182-.2-.279-.3a4.474,4.474,0,0,1-.466-.481,1.075,1.075,0,0,1-.1-.151c-.108-.211-.055-.377.062-.437a.335.335,0,0,1,.346.041.592.592,0,0,1,.219.2c-.248-.468-.528-.979-.829-1.539l-.007-.013c.9-1.71,3.321-5.948,3.753-7.184a10.9,10.9,0,0,0,.792-3.669,6.424,6.424,0,0,0-.247-1.891,9.342,9.342,0,0,0-.924-2.045c-.011-.02-.022-.04-.033-.061h0a2.071,2.071,0,0,0-.528-.5,1.1,1.1,0,0,0-.684-.192.889.889,0,0,0-.459.167,1.257,1.257,0,0,1-.57.243,1.535,1.535,0,0,1-.549-.042,4.508,4.508,0,0,1-1-.447,11.389,11.389,0,0,0-1.909-1,1.271,1.271,0,0,0-.792-.037,4.273,4.273,0,0,0-1.188.529,6.7,6.7,0,0,0-.866.641,5.436,5.436,0,0,0-.756.773,5.716,5.716,0,0,1,1.554-1.521,3.88,3.88,0,0,1,1.255-.583,1.408,1.408,0,0,1,.854.038,6.566,6.566,0,0,1,1.188.59c1.584.759,2.941-1.106,4.456,1.336-.977-1.787-1.018-1.445-1.642-1.556l-.071-.016c-.717-.165-1.952-.634-2.556-.855a1.284,1.284,0,0,0-.441-.059c-.77,0-2.017.341-2.88.426a2.421,2.421,0,0,0-.644.141c-.486.189-.607.51-.808.773a.506.506,0,0,1-.309.227h-.007c-.824.295-2.772,2.7-2.348,6.014a5.161,5.161,0,0,0,.186.953c.8,3.181,3.5,7.449,4.157,8.66a24.078,24.078,0,0,0-1.859,5.6,7.332,7.332,0,0,0-.1.991h0a3.942,3.942,0,0,0,.8,2.838,2.6,2.6,0,0,0,1.23.793h0a2.124,2.124,0,0,0,1.369.034,2.9,2.9,0,0,0,.561.264l.132.041a3.948,3.948,0,0,0,.643-.63Zm3.39-4.152a1.24,1.24,0,0,1,.177.132c.055.055.1.124.2.094-.066.132-.185.189-.264.143a.366.366,0,0,1-.124-.367Zm-.045.324a.408.408,0,0,1,.189.245c.008.04-.009.067-.059.093s-.074.02-.094-.009a.482.482,0,0,1-.044-.326ZM79.7,149.381l.238.411-.411.238-.238-.411Zm-.652,4.255-.341-.33.33-.342.341.33Zm.12-1.126a1.026,1.026,0,1,0,0-.005Zm4.922,19.846c-.115.075-.368-.013-.383-.126a.157.157,0,0,1,.132-.151.075.075,0,0,1,0,.019.077.077,0,0,0,.009.1.1.1,0,0,0,.108,0,.208.208,0,0,0,.112-.165.194.194,0,0,0-.166-.186.29.29,0,0,0-.319.235.459.459,0,0,0,.071.3c.058.116.211.308.256.427.117.3-.132.6-.528.7-.051.013-.156.038-.168-.017,0-.009.013-.05.018-.05a.5.5,0,0,0,.348-.116.48.48,0,0,0,.2-.382.714.714,0,0,0-.2-.4,3.746,3.746,0,0,1-.242-.328.292.292,0,0,1,.025-.381l.094.082c.025-.063.041-.132.073-.194a.236.236,0,0,1,.156-.132c.018.063.034.122.051.178.078-.119.157-.2.3-.194-.02.057-.04.108-.063.169l.033.016a.3.3,0,0,1,.213.23.339.339,0,0,1-.135.36Zm-1.08.011c.111.018.166.1.253.143a.409.409,0,0,1,.011-.057.607.607,0,0,1,.277.426.538.538,0,0,1-.147.408.953.953,0,0,0-.546-.771,1.6,1.6,0,0,1,.2,0c-.016-.052-.033-.1-.05-.155Zm1.443-7.765a.539.539,0,0,1-.15-.284.045.045,0,0,1,.041-.049.428.428,0,0,1,.289.132c.1.083.2.167.294.258-.018-.026-.034-.054-.054-.079a1.085,1.085,0,0,0-.408-.338.462.462,0,0,1-.2-.18.075.075,0,0,1,.012-.089c.033-.03.132.011.216.093a2.029,2.029,0,0,1,.2.23c.078-.007.147.028.226.139a1.456,1.456,0,0,1,.14.242.239.239,0,0,0,.071.087.473.473,0,0,1,.106.126.369.369,0,0,1,0,.354.164.164,0,0,1-.123.069.421.421,0,0,1-.2-.033.285.285,0,0,1-.164-.176.177.177,0,0,0-.055-.058c-.067-.046-.132-.083-.2-.132-.116-.083-.153-.147-.154-.243-.081-.058-.161-.108-.24-.168s-.132-.155-.106-.2c.083-.118.276.118.319.189a1.453,1.453,0,0,0,.321.363l.053.042c-.087-.108-.162-.213-.238-.3Zm.215-.476a1.058,1.058,0,0,1-.22-.39c0-.046.018-.093.084-.073a.3.3,0,0,1,.1.086.168.168,0,0,1,.046.161.188.188,0,0,0-.015.21Zm1.39,3.172a.462.462,0,0,1-.325-.344c-.054-.163-.1-.328-.168-.488a.383.383,0,0,0-.236-.215.156.156,0,0,0-.186.132c-.008.046-.007.1-.012.156a.552.552,0,0,1-.17-.344.373.373,0,0,1,.139-.36.264.264,0,0,1,.348.029,1.383,1.383,0,0,1,.276.328,4.521,4.521,0,0,1,.28.595.756.756,0,0,0,.29.377c.042.024.083.05.132.082a.555.555,0,0,1-.368.044Zm.792.584c.04.119.094.23.141.356-.037.015-.084.038-.132.056a.276.276,0,0,1-.363-.144c-.086-.227-.165-.467-.271-.712a.856.856,0,0,1,.166.02.576.576,0,0,1,.461.418Zm-2.028-1.237A.914.914,0,0,1,85.2,167a.326.326,0,0,1-.272.424.583.583,0,0,0-.1-.786Zm-.747-1.233a.23.23,0,0,0,.218.132c.044-.007.065-.042.05-.1a.244.244,0,0,0-.07-.115c-.026-.022-.065-.015-.1-.02,0-.063.008-.081.059-.079a.287.287,0,0,1,.218.219.163.163,0,0,1-.1.2.247.247,0,0,1-.264-.1.357.357,0,0,0-.11-.106.142.142,0,0,0-.1,0,.16.16,0,0,1,.062-.2l-.083-.056c-.074-.049-.081-.066-.036-.11a.219.219,0,0,1,.07-.05A.922.922,0,0,1,84.02,165a.766.766,0,0,1-.091-.107.227.227,0,0,1,.05-.026.276.276,0,0,1,.209.048c.132.081.264.168.387.256.236.163.462.319.682.252a.144.144,0,0,0,0,.025.1.1,0,0,0-.012.012.272.272,0,0,1-.368.087c-.156-.093-.342-.325-.5-.412a.278.278,0,0,0-.24-.032.2.2,0,0,0-.094.2.353.353,0,0,0,.041.1Zm-.337-.741c0-.209.315-.067.49.041a.527.527,0,0,0-.148,0c-.05.017-.083.057-.132.077s-.206-.013-.207-.126Zm.317-.615a.132.132,0,0,1-.082-.037c.028.032.045.059.042.075-.009.042-.069.094-.185,0-.055-.048-.112-.074-.172-.118a.124.124,0,0,1,.081-.132,1.023,1.023,0,0,1-.214-.238.435.435,0,0,1-.081-.221c0-.021.024-.026.046-.02a.512.512,0,0,1,.2.171,1.794,1.794,0,0,1,.168.264.132.132,0,0,1,.123-.114,1.282,1.282,0,0,0,.048.132c.02.044.057.09.077.132.042.061.012.085-.044.1Zm-.125,3.592.16-.069c-.066-.07-.144-.132-.2-.21a.323.323,0,0,1-.081-.278l.264.042a.454.454,0,0,1-.067-.5c.061.061.115.116.178.184.012-.011.026-.021.04-.034a.349.349,0,0,1,.433-.078.471.471,0,0,1,.264.4c.028.192-.132.387-.277.34a.221.221,0,0,1-.116-.251.258.258,0,0,1,.02.017.111.111,0,0,0,.132.048.132.132,0,0,0,.073-.132.3.3,0,0,0-.145-.242.273.273,0,0,0-.337.1.4.4,0,0,0,.11.545.659.659,0,0,0,.43.091,4.994,4.994,0,0,1,.544-.012.782.782,0,0,1,.719.974,2.72,2.72,0,0,1-.112.255c-.016-.009-.055-.046-.053-.053a.709.709,0,0,0,.061-.51.674.674,0,0,0-.371-.48.988.988,0,0,0-.62.013,5.639,5.639,0,0,1-.562.11.416.416,0,0,1-.478-.274Zm.627,1.077a2.627,2.627,0,0,1,.1-.275h-.236c.078-.143.223-.177.318-.279l-.073-.042a.884.884,0,0,1,.719-.176c.182.041.478.264.492.4a1.351,1.351,0,0,0-1.32.367Zm1.762,3.053c-.029.008-.051.011-.07.036a.275.275,0,0,0-.034.112.279.279,0,0,1-.16.213.124.124,0,0,1-.14-.1.31.31,0,0,1,.086-.275c.034-.02.048-.013.071.03-.021.016-.05.025-.059.05a.208.208,0,0,0,0,.1c.011.041.038.057.071.045a.178.178,0,0,0,.1-.173.4.4,0,0,0-.013-.085.15.15,0,0,0-.14-.1.219.219,0,0,0-.15.111c-.074.12-.111.346-.181.467s-.177.124-.3.078c-.025-.009-.147-.022-.194-.032-.107-.021-.2-.071-.2-.2s.066-.357.055-.5a.21.21,0,0,0-.082-.167.15.15,0,0,0-.169.024.265.265,0,0,0-.05.069.173.173,0,0,0,0,.2c.022.025.055.024.083-.008a.194.194,0,0,0,.045-.094.189.189,0,0,0-.029-.07c.041-.029.055-.029.077,0a.32.32,0,0,1-.046.288.132.132,0,0,1-.17.022.294.294,0,0,1-.046-.264.281.281,0,0,0,.021-.115c0-.03-.024-.044-.046-.063a.132.132,0,0,1,.158-.046v-.077c0-.067.008-.079.055-.069a.178.178,0,0,1,.062.024.527.527,0,0,1,.069.066c0-.019,0-.029.009-.04a.329.329,0,0,0,.022-.065.161.161,0,0,1,.038.022.386.386,0,0,1,.094.161c.024.073.07.159.1.243a.467.467,0,0,1,0-.061.346.346,0,0,1,.166-.256v-.1a.95.95,0,0,0-.03-.124.132.132,0,0,1,.156.025,1.6,1.6,0,0,1,0-.288.463.463,0,0,1,.066-.231c.013-.017.036-.025.045-.008a.4.4,0,0,1,.051.211,1.008,1.008,0,0,1-.045.295.113.113,0,0,1,.132.061c-.024.065-.054.115-.074.18a.205.205,0,0,1-.015.034l.044.07c.037.045.044.1,0,.2-.009.026-.017.054-.025.083a.775.775,0,0,1,.186-.2.7.7,0,0,1,.139-.078.17.17,0,0,1,.045,0,.552.552,0,0,1-.011.067.376.376,0,0,1-.011.04.6.6,0,0,1,.091-.029.188.188,0,0,1,.067.008c.048.012.049.025.017.086l-.034.069c.049.025.111.011.132.1-.008,0-.011,0-.013,0Zm-.152-2.263-.065-.169a1.244,1.244,0,0,1-.219.114c.044-.091.083-.186.121-.283h-.067a1.179,1.179,0,0,1,1.034-.661,2.009,2.009,0,0,0-.8.991Zm.624.059a.31.31,0,0,1-.053-.357.914.914,0,0,1,.28-.358c.054-.045.11-.086.162-.132l.016.013a.46.46,0,0,0,.018.469c-.1.008-.174.012-.256.017.037.128-.049.234-.165.34Zm.317.2a.171.171,0,0,1-.18-.063.2.2,0,0,0,.162-.165.6.6,0,0,1,.174-.28.452.452,0,0,1,.03.132.422.422,0,0,1-.04.264.2.2,0,0,1-.145.1Zm.372.046a.206.206,0,0,1-.2.046.226.226,0,0,0,.073-.209c0-.083.012-.173.015-.272a.352.352,0,0,1,.181.278.169.169,0,0,1-.067.149Zm-.413-3.024c.046.075.086.151.132.221a2.226,2.226,0,0,1,.143.214,1.644,1.644,0,0,1,.152.315.45.45,0,0,1-.215.518,2.68,2.68,0,0,0-.147-.333,1.1,1.1,0,0,1-.062-.942Zm-1.041-.821a2.407,2.407,0,0,1,.528.607.369.369,0,0,1,.053.291.158.158,0,0,0,.017.144,11.119,11.119,0,0,1,.726,1.61c.012.036.051.058.079.086s.094.071.11.122a.957.957,0,0,1,.029.264,2.607,2.607,0,0,1-.02.3c-.048,0-.17-.168-.236-.252a.324.324,0,0,1-.054-.385.093.093,0,0,0,0-.062,10.669,10.669,0,0,0-.709-1.646.1.1,0,0,0-.083-.059.244.244,0,0,1-.15-.067,2.654,2.654,0,0,1-.248-.4,8.155,8.155,0,0,0-.432-.833.437.437,0,0,1-.028-.065c.029.018.046.028.062.04.119.1.242.189.359.292Zm-.438-1.85a.249.249,0,0,1,.087.264.164.164,0,0,1-.2.083.285.285,0,0,1-.2-.231c0-.052.018-.061.082-.056a.166.166,0,0,0,.013.1.25.25,0,0,0,.111.078c.051.017.088,0,.1-.045a.233.233,0,0,0-.121-.225.4.4,0,0,0-.1-.046.193.193,0,0,0-.2.082.265.265,0,0,0,.016.241c.077.165.3.367.379.529a.265.265,0,0,1-.111.361s-.008.011-.013.012h-.025c.081-.215-.061-.452-.207-.7-.079-.132-.158-.264-.231-.4a.275.275,0,0,1-.033-.212.184.184,0,0,1,.029-.049,1.024,1.024,0,0,1,.1.1c.024-.132.066-.167.09-.185.049-.04.062-.036.106.042l.051.086c.061-.036.09-.112.2-.066,0,.008.008.015,0,.017a.132.132,0,0,0-.011.1.367.367,0,0,0,.107.119Zm-2.317-15.729a1.5,1.5,0,0,1,1.411.152,3.373,3.373,0,0,0,1.342.367,1.242,1.242,0,0,0,.873-.383,4.2,4.2,0,0,1,.855.8,5.088,5.088,0,0,1,1.267,3.911c-.228,3.61-2.864,7.485-4.079,9.421-.366-.579-.7-1.221-1.139-1.959,2.441-5.637,2.388-7.8,2.01-8.856a3.221,3.221,0,0,0-4.414-1.837,4.546,4.546,0,0,1,1.876-1.623Zm-2.149,7.33a11.366,11.366,0,0,1-.408-1.623h0a.056.056,0,0,1,0-.007h0a4.95,4.95,0,0,1,.4-3.581c.012-.025.025-.05.038-.075a3.093,3.093,0,0,1,2.344-.247,2.7,2.7,0,0,1,1.931,1.8c.66,1.85-.742,5.45-2,8.063A31.662,31.662,0,0,1,81.126,155.725Zm.285,16.654a1.6,1.6,0,0,1-1.131-1.038c-.325-.979-.257-2.925,1.486-7.33.182.4.354.768.429.925a11.69,11.69,0,0,1,1.253,5.041C83.427,170.97,82.75,172.6,81.411,172.379Zm1.331,1.372c.03-.025.062-.05.1-.079a.881.881,0,0,1-.124-.116c.07.008.141.012.213.016a.152.152,0,0,0-.013-.044.8.8,0,0,1,.66.521,1.434,1.434,0,0,0-.83-.295Zm1.111-.05c-.069.053-.132.112-.2.171-.017-.02-.044-.046-.066-.075a.188.188,0,0,1,.012-.264c.132-.106.264-.211.4-.334.009.044.02.078.025.112A.4.4,0,0,1,83.853,173.7ZM70.8,180.31v-2.866h-.892v2.866Zm10.016-17.281-.458.264.048.083.35-.2h0l-.276.329.04.069.424-.073h0l-.35.2.048.085.458-.264-.074-.132-.378.059.24-.3Zm-8.95,33.164c-.161.271-.28.64-.14.723.164.1.38-.079.887-.673a.9.9,0,0,0-.154-.114c-.355-.213-.473-.13-.587.063Zm10.34,4.835c-.1.3-.143.683.011.736.181.062.356-.156.731-.841a.958.958,0,0,0-.176-.081c-.387-.134-.488-.028-.561.185ZM74.032,180.31l.111-.385h1.008l.121.385h.9l-1.044-2.87h-.924l-1.053,2.87Zm.615-2.132.356,1.19h-.7Zm-2.342,1.1h.643l.228-.628h-.871v-.58h1.081l.228-.625h-2.2v2.87h.892Zm13.176,22.409c-.187-.054-.33.079-.417.333a1.493,1.493,0,0,1,.6.032c.033-.193-.008-.312-.178-.361Zm7.656-21.652a1.563,1.563,0,0,0,.528.25,2.217,2.217,0,0,0,.581.079,2.787,2.787,0,0,0,.488-.037c.132-.025.252-.052.362-.079l-.024-.595a2.523,2.523,0,0,1-.341.106,1.7,1.7,0,0,1-.374.042,1.174,1.174,0,0,1-.387-.061.838.838,0,0,1-.3-.18.829.829,0,0,1-.2-.285.937.937,0,0,1-.073-.378,1.059,1.059,0,0,1,.063-.373.852.852,0,0,1,.181-.293.828.828,0,0,1,.281-.193.923.923,0,0,1,.37-.07,1.441,1.441,0,0,1,.38.049,1.626,1.626,0,0,1,.367.152l.062-.621c-.14-.041-.279-.075-.418-.1a2.108,2.108,0,0,0-.432-.044,2.208,2.208,0,0,0-.66.094,1.452,1.452,0,0,0-.521.279,1.273,1.273,0,0,0-.343.469,1.628,1.628,0,0,0-.123.661,1.462,1.462,0,0,0,.149.689,1.321,1.321,0,0,0,.385.448Z" transform="translate(-47.637 -133.446)" fill="url(#linear-gradient)"/>
</svg>
