<svg xmlns="http://www.w3.org/2000/svg" width="2500" height="2500" viewBox="0 0 192.756 192.756"><g fill-rule="evenodd" clip-rule="evenodd"><path fill="#fff" d="M0 0h192.756v192.756H0V0z"/><path fill="#fff" d="M13.87 54.845h63.167v83.067H13.87V54.845z"/><path fill="#fff" d="M184.252 139.588c0 1.902-1.453 3.355-3.354 3.355H11.858c-1.9 0-3.354-1.453-3.354-3.355v-86.42c0-1.789 1.454-3.354 3.354-3.354h169.041c1.9 0 3.354 1.565 3.354 3.354v86.42h-.001z"/><path fill="#3165aa" d="M180.451 51.603H12.193c-1.006 0-2.012.895-2.012 2.013v85.525c0 1.119 1.006 2.014 2.012 2.014h168.258a2.005 2.005 0 0 0 2.012-2.014V53.615a2.004 2.004 0 0 0-2.012-2.012zM14.318 55.739h61.713v81.39H14.318v-81.39z"/><path fill="#fff" d="M97.943 102.918v12.633h-2.795v-5.254h-6.037v5.254h-2.795v-12.633h2.795v5.031h6.037v-5.031h2.795zM169.605 115.551h2.795v-12.633h-2.795v12.633zM122.314 112.086c0 .895-.111 1.006-.781 1.006h-5.031v-10.174h-2.795v12.633h9.055s2.348-.111 2.348-2.795v-9.838h-2.795l-.001 9.168zM136.291 115.551h2.795v-9.838c0-2.684-2.461-2.795-2.461-2.795h-8.943v12.633h2.684v-10.172h5.031c.781 0 .895.223.895 1.006l-.001 9.166zM112.59 102.918h-3.467l-3.242 5.367-3.354-5.367h-3.466l5.478 8.162v4.471h2.684v-4.582l5.367-8.051zM141.545 115.551h8.832c2.459 0 2.684-2.459 2.684-2.459v-7.713s-.225-2.461-2.684-2.461h-8.832v12.633zm8.607-3.354s.113.895-.781.895h-5.031v-7.713h5.031c.895 0 .781 1.006.781 1.006v5.812zM167.258 102.918v12.633h-2.906v-3.688h-6.148v3.688h-2.795v-9.391c0-3.354 3.131-3.242 3.131-3.242h8.718zm-2.906 6.598v-4.137h-5.254s-.895 0-.895 1.117v3.02h6.149zM161.221 79.441c0 9.056-14.197 16.322-31.861 16.322s-31.975-7.267-31.975-16.322c0-8.944 14.311-16.323 31.975-16.323s31.861 7.379 31.861 16.323zm-33.428-2.236c2.795-.559 5.479-1.453 7.604-2.236 6.707-2.459 9.949-5.031 10.621-5.59.895-.782.223-1.118-.561-1.341-4.582-1.454-11.627-2.46-16.211-2.236-3.24.112-5.029 3.689-5.701 5.254-3.465 7.267 2.684 6.484 4.248 6.149zM106.998 87.49c.113-.335 5.479-12.969 11.852-19.9.67-.783-.111-.894-1.117-.67-10.398 2.012-17.664 6.931-17.664 12.521 0 3.018 2.123 5.925 5.701 8.161.558.336 1.005.112 1.228-.112zm23.814-5.813c-2.795.559-5.367 1.565-7.49 2.236-6.82 2.46-10.062 5.031-10.732 5.59-.783.783-.113 1.118.67 1.342 4.584 1.453 11.627 2.459 16.1 2.236 3.242-.112 5.143-3.578 5.812-5.143 3.355-7.379-2.684-6.597-4.36-6.261zm27.838-2.236c0-3.019-2.125-5.813-5.814-8.162-.559-.335-1.006-.112-1.117.224-.225.224-5.59 12.969-11.852 19.789-.781.782.113 1.006 1.119.782 10.397-2.124 17.664-6.932 17.664-12.633zM87.546 126.619c0-1.676.112-2.234.783-2.234.67 0 .894.559.894 2.234 0 1.566-.224 2.236-.894 2.236-.671 0-.783-.669-.783-2.236zm-1.23 0c0 1.789.224 3.131 2.013 3.131s2.124-1.342 2.124-3.131c0-1.9-.335-3.242-2.124-3.242-1.789 0-2.013 1.342-2.013 3.242zM93.695 125.838h-.559v-.783h.559v-.559c0-.783.559-1.119 1.23-1.119.224 0 .447.113.67.113v.781h-.224c-.335 0-.447.113-.447.336v.447h.67v.783h-.67v3.801h-1.23v-3.8h.001zM98.613 125.838h-.559v-.783h.559v-.559c0-.783.447-1.119 1.23-1.119.225 0 .447.113.672.113v.781h-.225c-.336 0-.447.113-.447.336v.447h.672v.783h-.672v3.801h-1.23v-3.8zM103.311 125.055h1.229v4.584h-1.229v-4.584zm0-1.565h1.229v1.006h-1.229v-1.006zM109.906 126.732c0-.447-.113-.895-.559-.895-.561 0-.672.447-.672 1.564s.111 1.566.672 1.566c.445 0 .559-.336.559-1.119h1.117c0 1.23-.447 1.9-1.676 1.9-1.23 0-1.789-.559-1.789-2.459 0-1.789.781-2.348 1.9-2.348 1.006 0 1.564.67 1.564 1.789h-1.116v.002zM114.043 125.055h1.229v4.584h-1.229v-4.584zm0-1.565h1.229v1.006h-1.229v-1.006zM120.639 128.186c0 .559-.447.783-.783.783-.223 0-.447-.336-.447-.672 0-.447.225-.67.672-.783.223 0 .334 0 .559-.223v.895h-.001zm-1.119-1.79v-.111c0-.336.225-.561.561-.561.334 0 .559.225.559.561 0 .334-.111.447-.447.559l-.672.111c-.893.225-1.229.672-1.229 1.453 0 .672.336 1.342 1.117 1.342.559 0 .895-.111 1.23-.559 0 .111 0 .336.111.447h1.119c-.113-.225-.113-.447-.113-.895v-2.459c0-.783-.334-1.342-1.676-1.342-.895 0-1.566.334-1.566 1.453h1.006v.001zM124.998 123.602h1.231v6.037h-1.231v-6.037zM135.061 124.496h.559c.559 0 .783.336.783.895 0 .67-.336.895-.783.895h-.559v-1.79zm-1.231 5.143h1.23v-2.459h.672c1.117 0 1.898-.561 1.898-1.789 0-.895-.445-1.789-1.676-1.789h-2.125v6.037h.001zM142.551 128.186c0 .559-.447.783-.67.783-.336 0-.447-.336-.447-.672 0-.447.111-.67.559-.783.223 0 .447 0 .559-.223v.895h-.001zm-1.117-1.79v-.111c0-.336.223-.561.559-.561.447 0 .559.225.559.561 0 .334-.111.447-.447.559l-.67.111c-.783.225-1.119.672-1.119 1.453 0 .672.225 1.342 1.008 1.342.559 0 .893-.111 1.229-.559 0 .111.111.336.111.447h1.119c-.111-.225-.111-.447-.111-.895v-2.459c0-.783-.225-1.342-1.678-1.342-.895 0-1.564.334-1.564 1.453h1.004v.001zM146.912 125.055h1.117v.559c.225-.336.559-.67 1.117-.67h.113v1.117h-.336c-.447 0-.895.225-.895.783v2.795h-1.117v-4.584h.001zM152.389 123.713h1.119v1.342h.67v.783h-.67v2.459c0 .336.111.559.447.559h.223v.783h-.67c-1.006 0-1.119-.225-1.119-1.119v-2.682h-.67v-.783h.67v-1.342zM156.973 125.055h1.23v.559c.223-.447.67-.67 1.117-.67.783 0 1.119.334 1.119 1.342v3.354h-1.119v-3.131c0-.447-.111-.67-.447-.67-.447 0-.67.223-.67.781v3.02h-1.23v-4.585zM164.688 126.844v-.225c0-.447.111-.895.559-.895.559 0 .559.447.672 1.119h-1.231v.001zm2.347.67v-.223c0-1.453-.336-2.348-1.678-2.348-1.676 0-1.9 1.117-1.9 2.348 0 1.117.113 2.459 1.789 2.459 1.119 0 1.678-.559 1.678-1.676h-1.006c-.113.559-.336.895-.672.895-.447 0-.559-.561-.559-1.119v-.336h2.348zM169.941 125.055h1.119v.559h.111c.223-.336.559-.67 1.006-.67h.223v1.117h-.334c-.447 0-.895.225-.895.783v2.795h-1.23v-4.584z"/><path fill="#373839" d="M56.159 107.006c-.224-.373-.075-.82.299-1.045.374-.15.822 0 1.046.373s.075.822-.299 1.047c-.373.148-.822.074-1.046-.375zm1.121.523c.448-.299.598-.822.374-1.27-.224-.523-.822-.672-1.27-.375-.448.225-.598.748-.374 1.197.224.523.822.673 1.27.448zm-.075-.822c0 .076 0 .225-.149.299-.224.15-.449 0-.523-.148-.075-.225-.075-.449.149-.523.149-.074.225-.074.374 0l.149-.074c-.149-.15-.448-.225-.598-.074-.299.148-.373.447-.224.746s.448.373.747.225c.224-.074.299-.299.224-.523l-.149.072zM59.372 105.961l-.224.148-.598-1.045-.373.225-.075-.15c.224-.148.299-.225.224-.523l.075-.074.971 1.419zM59.745 104.766a.292.292 0 0 1-.448-.074c-.149-.225-.149-.373 0-.523.224-.15.374-.074.523.074.224.298.075.448-.075.523zm.15.224c.074-.15.224-.299.149-.449.224.373.224.672.075.748-.149.148-.299.074-.448 0l-.149.074c.075.148.374.373.672.074.523-.299.075-.971 0-1.119-.224-.225-.523-.6-.971-.301-.299.225-.299.523-.15.822.224.225.523.3.822.151zM60.941 103.869c-.075.074-.299.225-.523-.076-.15-.148-.076-.373.074-.521.15-.15.374-.074.449.074.224.299.074.447 0 .523zm.074.149a.41.41 0 0 0 .225-.373c.224.373.224.598.075.746-.149.15-.299.076-.373 0l-.225.15c.149.074.374.225.747 0 .448-.373 0-.971-.149-1.121-.149-.223-.523-.598-.972-.299-.298.225-.224.598-.074.822.223.299.522.299.746.075zM62.136 102.898c-.149.074-.298.223-.523-.076a.362.362 0 0 1 0-.523c.149-.148.374-.074.448.076.224.223.149.447.075.523zm.074.149c.15-.074.224-.299.15-.449.299.375.299.6.149.822-.149.074-.299.074-.374-.074l-.224.148c.149.15.449.299.748 0 .373-.373-.075-.971-.225-1.119-.224-.225-.597-.523-.971-.15-.299.225-.224.523 0 .748.224.298.524.298.747.074zM64.079 101.926l-.15.224-1.27-1.195.747-.896.224.15-.672.672.373.373.598-.598.15.151-.599.595.599.524zM65.199 100.656l-.15.151-1.344-1.047.149-.225 1.345 1.121zM65.722 99.984l-.149.149-1.42-.971.747-1.047.149.151-.597.822.448.299.523-.748.15.15-.524.746.673.449zM66.245 98.34l.299.449-.15.223-1.12-1.494.149-.223 1.793.373-.075.225-.597-.15-.299.597zm.074-.598l-.747-.225.522.674.225-.449zM66.095 96.024l.673-1.27.149.075-.224.597 1.345.673-.075.223-1.419-.671-.225.523-.224-.15zM69.083 93.708l-.971-.374c-.075 0-.299-.074-.449-.149l1.196 1.046-.075.224-1.569-.075c.149 0 .373.075.448.149l.972.374-.149.224-1.644-.672.15-.299 1.568.075-1.194-1.046.149-.298 1.644.672-.076.149z"/><path fill="#eed03c" d="M33.522 69.801c3.138-2.316 7.022-3.66 11.206-3.66 1.345 0 2.615.149 3.81.373l-1.718-2.988c-.672 0-1.344-.075-2.092-.075-5.304 0-10.161 1.943-13.896 5.08l2.69 1.27z"/><path fill="#eed03c" d="M33.522 69.801c2.54-1.867 5.603-3.137 8.89-3.511a13.148 13.148 0 0 0-2.241-2.316c-3.511.748-6.724 2.316-9.339 4.557l2.69 1.27z"/><path fill="#efd245" d="M33.522 69.801a19.042 19.042 0 0 1 8.517-3.437 13.217 13.217 0 0 0-2.242-2.315 20.742 20.742 0 0 0-8.965 4.482l2.69 1.27z"/><path fill="#efd24d" d="M39.424 64.124c-3.213.822-6.126 2.316-8.592 4.408l2.69 1.27a19.783 19.783 0 0 1 8.143-3.437 15.77 15.77 0 0 0-2.241-2.241z"/><path fill="#efd553" d="M39.125 64.199c-3.138.822-5.902 2.315-8.293 4.333l2.69 1.27a19.084 19.084 0 0 1 7.769-3.361c-.597-.823-1.344-1.57-2.166-2.242z"/><path fill="#f1d65c" d="M38.751 64.273c-2.914.896-5.603 2.315-7.919 4.258l2.69 1.27c2.167-1.568 4.707-2.689 7.396-3.287-.597-.822-1.344-1.568-2.167-2.241z"/><path fill="#f2d865" d="M38.453 64.422c-2.838.822-5.379 2.242-7.62 4.109l2.69 1.27c2.092-1.494 4.482-2.614 7.022-3.213-.598-.821-1.27-1.567-2.092-2.166z"/><path fill="#f2da6b" d="M38.154 64.497c-2.764.822-5.229 2.241-7.321 4.034l2.69 1.27c2.017-1.419 4.258-2.54 6.649-3.137-.524-.823-1.271-1.495-2.018-2.167z"/><path fill="#f2db73" d="M37.781 64.572c-2.54.897-4.931 2.241-6.948 3.959l2.69 1.27c1.867-1.419 4.035-2.391 6.35-3.063-.598-.746-1.27-1.493-2.092-2.166z"/><path fill="#f3dd7a" d="M37.481 64.722c-2.465.821-4.707 2.166-6.649 3.81l2.69 1.27a17.81 17.81 0 0 1 5.977-2.914c-.523-.822-1.27-1.569-2.018-2.166z"/><path fill="#f3dd81" d="M37.183 64.795a22.608 22.608 0 0 0-6.351 3.736l2.69 1.27c1.718-1.27 3.585-2.241 5.677-2.839-.596-.821-1.269-1.493-2.016-2.167z"/><path fill="#f4df87" d="M36.884 64.946c-2.241.821-4.259 2.091-6.052 3.585l2.69 1.27c1.643-1.195 3.362-2.092 5.304-2.689a8.957 8.957 0 0 0-1.942-2.166z"/><path fill="#f4e08e" d="M36.585 65.021a23.7 23.7 0 0 0-5.753 3.511l2.69 1.27a17.74 17.74 0 0 1 5.005-2.614 13.235 13.235 0 0 0-1.942-2.167z"/><path fill="#f4e295" d="M36.287 65.169a19.532 19.532 0 0 0-5.454 3.362l2.69 1.27a18.416 18.416 0 0 1 4.631-2.465c-.523-.822-1.12-1.495-1.867-2.167z"/><path fill="#f5e49b" d="M35.988 65.319c-1.868.822-3.586 1.868-5.155 3.212l2.69 1.27c1.345-.972 2.764-1.793 4.333-2.391-.523-.746-1.122-1.493-1.868-2.091z"/><path fill="#f7e6a2" d="M35.689 65.394a22.432 22.432 0 0 0-4.856 3.137l2.69 1.27c1.27-.896 2.54-1.644 3.959-2.241-.448-.822-1.046-1.494-1.793-2.166z"/><path fill="#f8e8a8" d="M35.39 65.543a22.849 22.849 0 0 0-4.557 2.988l2.69 1.27c1.121-.822 2.391-1.568 3.661-2.092-.45-.821-1.047-1.494-1.794-2.166z"/><path fill="#f8e9b0" d="M35.091 65.692c-1.494.748-2.988 1.718-4.259 2.839l2.69 1.27c1.045-.747 2.167-1.419 3.362-1.942-.523-.822-1.046-1.494-1.793-2.167z"/><path fill="#77b8a4" d="M24.258 78.019c-.822 2.241-1.195 4.632-1.195 7.172 0 8.816 5.229 16.436 12.851 19.874l2.614-1.867c-7.471-2.541-12.775-9.638-12.775-18.006 0-2.764.522-5.454 1.643-7.844l-3.138.671z"/><path fill="#77b8a4" d="M27.396 77.347l-3.138.672c-.822 2.241-1.195 4.632-1.195 7.172 0 2.988.598 5.827 1.718 8.442.896 0 1.868 0 2.914-.074-1.27-2.541-1.942-5.38-1.942-8.368 0-2.764.522-5.454 1.643-7.844z"/><path fill="#7bbaa6" d="M27.396 77.347l-3.138.672c-.822 2.241-1.195 4.632-1.195 7.172 0 2.839.522 5.604 1.494 8.069.971 0 1.942 0 2.914-.075-1.121-2.39-1.718-5.155-1.718-7.994 0-2.764.522-5.454 1.643-7.844z"/><path fill="#7fbba7" d="M27.396 77.347l-3.138.672c-.822 2.241-1.195 4.632-1.195 7.172 0 2.69.448 5.305 1.419 7.696.896 0 1.868 0 2.839-.076-1.046-2.316-1.569-4.931-1.569-7.621.001-2.763.523-5.453 1.644-7.843z"/><path fill="#82bdab" d="M27.396 77.347l-3.138.672c-.822 2.241-1.195 4.632-1.195 7.172 0 2.541.448 5.081 1.271 7.322h2.839c-.972-2.315-1.419-4.707-1.419-7.322-.001-2.764.521-5.454 1.642-7.844z"/><path fill="#86beac" d="M27.396 77.347l-3.138.672c-.822 2.241-1.195 4.632-1.195 7.172 0 2.466.374 4.782 1.121 6.948h2.839a19.44 19.44 0 0 1-1.27-6.948c0-2.764.522-5.454 1.643-7.844z"/><path fill="#8ac0ae" d="M27.396 77.347l-3.138.672c-.822 2.241-1.195 4.632-1.195 7.172 0 2.316.299 4.483.971 6.575h2.839a19.325 19.325 0 0 1-1.12-6.575c0-2.764.522-5.454 1.643-7.844z"/><path fill="#8dc2b1" d="M26.724 91.392c-.672-1.942-.971-4.034-.971-6.201 0-2.764.522-5.454 1.643-7.844l-3.138.672c-.822 2.241-1.195 4.632-1.195 7.172 0 2.167.299 4.259.896 6.201h2.765z"/><path fill="#91c3b3" d="M26.649 91.018a19.018 19.018 0 0 1-.896-5.827c0-2.764.522-5.454 1.643-7.844l-3.138.672c-.822 2.241-1.195 4.632-1.195 7.172 0 2.018.224 3.96.747 5.827h2.839z"/><path fill="#95c5b7" d="M26.499 90.645c-.522-1.718-.746-3.586-.746-5.454 0-2.764.522-5.454 1.643-7.844l-3.138.672c-.822 2.241-1.195 4.632-1.195 7.172 0 1.868.224 3.736.672 5.454h2.764z"/><path fill="#98c7b9" d="M26.425 90.271a19.367 19.367 0 0 1-.672-5.081c0-2.764.522-5.454 1.643-7.844l-3.138.672c-.822 2.241-1.195 4.632-1.195 7.172 0 1.793.224 3.437.598 5.081h2.764z"/><path fill="#9cc8ba" d="M26.275 89.898c-.374-1.495-.522-3.064-.522-4.708 0-2.764.522-5.454 1.643-7.844l-3.138.672c-.822 2.241-1.195 4.632-1.195 7.172 0 1.644.149 3.213.522 4.708.823.075 1.719 0 2.69 0z"/><path fill="#a0cabe" d="M26.201 89.524a20.786 20.786 0 0 1-.448-4.333c0-2.764.522-5.454 1.643-7.844l-3.138.672c-.822 2.241-1.195 4.632-1.195 7.172 0 1.495.149 2.988.448 4.333.822.075 1.718 0 2.69 0z"/><path fill="#a4cec1" d="M26.126 89.151c-.299-1.27-.374-2.614-.374-3.96 0-2.764.522-5.454 1.643-7.844l-3.138.672c-.822 2.241-1.195 4.632-1.195 7.172 0 1.346.075 2.69.374 4.035.822 0 1.719-.075 2.69-.075z"/><path fill="#a8d0c3" d="M26.052 88.777c-.225-1.195-.299-2.391-.299-3.586 0-2.764.522-5.454 1.643-7.844l-3.138.672c-.822 2.241-1.195 4.632-1.195 7.172 0 1.271.075 2.466.299 3.662.822 0 1.719-.076 2.69-.076z"/><path fill="#acd2c6" d="M25.977 88.404a23.291 23.291 0 0 1-.224-3.213c0-2.764.522-5.454 1.643-7.844l-3.138.672c-.822 2.241-1.195 4.632-1.195 7.172 0 1.121.075 2.167.224 3.288.822 0 1.718-.075 2.69-.075z"/><path fill="#afd3c8" d="M25.902 87.956c-.149-.896-.149-1.793-.149-2.765 0-2.764.522-5.454 1.643-7.844l-3.138.672c-.822 2.241-1.195 4.632-1.195 7.172 0 .972.075 1.943.149 2.914.897 0 1.793-.075 2.69-.149z"/><path fill="#b3d5ca" d="M25.753 85.191c0-2.764.522-5.454 1.643-7.844l-3.138.672c-.822 2.241-1.195 4.632-1.195 7.172 0 .822 0 1.719.149 2.541.821 0 1.718-.075 2.689-.15-.148-.748-.148-1.569-.148-2.391z"/><path fill="#77b8a4" d="M42.711 92.737a14.518 14.518 0 0 1-3.287-9.189v-.449c2.092 2.541 3.287 5.678 3.287 9.189v.449z"/><path fill="#77b8a4" d="M39.424 83.548c0 1.494.224 2.988.673 4.333.597-.224 1.12-.374 1.718-.672-.523-1.494-1.345-2.839-2.391-4.109v.448z"/><path fill="#81bca9" d="M39.424 83.548c0 1.419.224 2.838.598 4.108a11.505 11.505 0 0 0 1.719-.598c-.523-1.419-1.345-2.764-2.316-3.959l-.001.449z"/><path fill="#88bfae" d="M39.424 83.548c0 1.344.224 2.689.523 3.885.598-.149 1.195-.299 1.718-.523a12.228 12.228 0 0 0-2.241-3.811v.449z"/><path fill="#91c3b3" d="M39.424 83.548c0 1.344.149 2.539.523 3.735a14.68 14.68 0 0 0 1.644-.598c-.522-1.27-1.27-2.465-2.167-3.586v.449z"/><path fill="#98c7b9" d="M39.424 83.548c0 1.27.149 2.391.448 3.511.523-.149 1.121-.298 1.644-.522a12.431 12.431 0 0 0-2.092-3.437v.448z"/><path fill="#a2cdbf" d="M39.424 83.548c0 1.195.149 2.241.374 3.362.598-.149 1.121-.374 1.644-.523-.523-1.196-1.195-2.315-2.017-3.287l-.001.448z"/><path fill="#acd1c5" d="M39.424 83.548c0 1.12.149 2.166.374 3.137.523-.149 1.045-.299 1.569-.523a13.29 13.29 0 0 0-1.942-3.063l-.001.449z"/><path fill="#b3d5ca" d="M39.424 83.548c0 1.045.149 2.016.298 2.913.523-.075 1.046-.299 1.569-.448-.522-1.046-1.12-2.018-1.867-2.914v.449z"/><path fill="#cbab48" d="M39.424 83.548v-.449c-.225-.224-.374-.449-.598-.747-.075.448-.075.821-.075 1.195 0 3.959 1.495 7.47 3.885 10.16.075-.298.075-.597.075-.971a14.513 14.513 0 0 1-3.287-9.188z"/><path fill="#f0da41" d="M45.55 84.893c3.212-.374 5.828-2.615 6.35-5.828v.896c0 9.265-4.706 17.482-11.878 22.337 3.586-3.734 5.752-8.74 5.752-14.269 0-1.119-.074-2.09-.224-3.136z"/><path fill="#f0da41" d="M51.9 79.065c-.522 3.213-3.138 5.454-6.35 5.828.149 1.046.224 2.018.224 3.137 0 .598-.075 1.196-.075 1.869a42.198 42.198 0 0 0 5.08-2.242 26.273 26.273 0 0 0 1.121-7.695v-.897z"/><path fill="#f1de46" d="M51.9 79.065c-.522 3.213-3.138 5.454-6.35 5.828.149 1.046.224 2.018.224 3.137 0 .523 0 1.046-.075 1.495a38.395 38.395 0 0 0 5.155-2.241 26.291 26.291 0 0 0 1.045-7.322l.001-.897z"/><path fill="#f1de4f" d="M51.9 79.065c-.522 3.213-3.138 5.454-6.35 5.828.149 1.046.224 2.018.224 3.137 0 .374 0 .823-.075 1.196a35.792 35.792 0 0 0 5.304-2.316c.523-2.242.896-4.557.896-6.949l.001-.896z"/><path fill="#f1df5e" d="M51.9 79.065c-.522 3.213-3.138 5.454-6.35 5.828.149 1.046.224 2.018.224 3.137 0 .299 0 .598-.075.897 1.793-.598 3.586-1.42 5.379-2.391.523-2.092.821-4.259.821-6.575l.001-.896z"/><path fill="#f2e270" d="M51.9 79.065c-.522 3.213-3.138 5.454-6.35 5.828.149 1.046.224 2.018.224 3.137v.598a31.073 31.073 0 0 0 5.379-2.465c.449-1.942.747-4.034.747-6.201v-.897z"/><path fill="#f2e480" d="M51.9 79.065c-.522 3.213-3.138 5.454-6.35 5.828.149 1.046.224 2.018.224 3.137v.299c1.793-.672 3.661-1.419 5.454-2.465.448-1.868.672-3.885.672-5.902v-.897z"/><path fill="#f2e58e" d="M51.9 79.065c-.522 3.213-3.138 5.454-6.35 5.828.149 1.046.224 2.018.224 3.137 1.793-.672 3.736-1.493 5.529-2.539.373-1.793.597-3.587.597-5.529v-.897z"/><path fill="#f7ea9b" d="M51.9 79.065c-.522 3.213-3.138 5.454-6.35 5.828.075.971.224 1.869.224 2.839 1.793-.673 3.736-1.495 5.604-2.616.298-1.644.522-3.361.522-5.155v-.896z"/><path fill="#ca4a3f" d="M61.239 99.311c3.213-3.809 5.229-8.74 5.229-14.12 0-11.28-8.666-20.545-19.648-21.665l1.718 2.988c8.741 1.793 15.241 9.488 15.241 18.677a18.885 18.885 0 0 1-5.828 13.672s0 .074-.075.074l-.448.449c-.075 0-.075.074-.149.074-.075.148-.224.225-.373.373l-.075.076c-.374.299-.748.521-1.046.82-.075 0-.075.076-.149.076-.149.074-.299.223-.449.299l-.074.074c-.225.148-.374.223-.598.373h-.074c-.149.074-.299.225-.523.299l-.075.074c-.225.074-.374.225-.598.299-.224.074-.374.225-.597.299-.075 0-.075 0-.075.074-.224.076-.374.15-.598.225H51.9c-.224.076-.448.225-.672.299a1.053 1.053 0 0 0-.225-.299c0-.074-.074-.074-.074-.148-.075-.076-.15-.15-.224-.299-.075-.076-.075-.15-.149-.225-.075-.074-.149-.15-.149-.225-.075-.074-.15-.225-.225-.299 0-.074-.074-.148-.149-.148-.075-.225-.149-.373-.299-.523 0-.074 0-.074-.074-.148-.075-.15-.149-.301-.225-.375 0-.074-.074-.148-.074-.148-.075-.225-.15-.373-.224-.523l-.075-.074a14.2 14.2 0 0 0-.523-1.195c-.299-.896-.597-1.793-.822-2.765-.821 1.196-1.718 2.315-2.69 3.437-.224.148-.373.373-.597.523 0 .074-.075.074-.075.148l-.448.449c-.075 0-.149.074-.149.148-.149.15-.374.299-.523.449l-.075.074c-.224.15-.448.373-.672.523 0 .074-.075.074-.15.148-.149.074-.298.225-.448.373l-.225.225c-.149.074-.224.15-.374.225-.074.074-.223.148-.298.225a.979.979 0 0 0-.299.225c-.149.074-.224.148-.374.223-.075.076-.224.15-.299.225a.979.979 0 0 0-.299.225c-.448-.15-.822-.225-1.195-.373l-2.614 1.867c.224.074.522.225.821.299.075.074.15.074.224.074v.074h.075c.149.076.373.15.523.225h.149c.224.074.448.148.747.225.15.074.225.074.374.148h.149s0 .076.075.076.149 0 .224.074h.299c.074.074.149.074.224.074.074 0 .074 0 .149.074h.075c.075 0 .224.074.299.074h.224c.075.076.149.076.224.076h.149c.075.074.15.074.224.074H41.365c.075 0 .075.074.149.074H41.962c.075.076.149.076.224.076h.3c.074 0 .224.074.298.074h.821c.075 0 .149 0 .149.074h1.942c.075-.074.149-.074.149-.074h.822c.149 0 .225-.074.299-.074h.523c0-.076 0-.076.075-.076h.299c.075 0 .149 0 .224-.074h.374c.074-.074.074-.074.149-.074H48.834c.074-.076.224-.076.299-.076h.074c.15-.074.225-.074.3-.074.075 0 .149-.074.224-.074.149 0 .299-.074.448-.074 0 0 0-.074.075-.074.299-.076.523-.15.822-.225.074 0 .149 0 .224-.076.149 0 .373-.074.523-.148h.074c.075-.074.15-.074.224-.074.15-.074.299-.15.449-.225.149 0 .224-.074.298-.074.15-.074.299-.15.449-.225h.075c.075-.074.149-.074.224-.148l.449-.225c.149 0 .224-.074.298-.074.149-.076.299-.15.449-.225 0 0 0-.076.074-.076.075 0 .075-.072.15-.072.225-.076.448-.225.598-.375.074 0 .149-.074.224-.074l.673-.449c.074-.074.074-.074.149-.074.225-.148.523-.373.747-.523.075-.074.149-.074.149-.148.225-.15.448-.299.598-.449.074 0 .074-.074.149-.074l.075-.074c.149-.15.298-.225.374-.375.075 0 .149-.074.224-.148.149-.15.299-.225.374-.373.075 0 .149-.074.149-.074l.075-.076.374-.373.224-.225.374-.373c0-.074.075-.074.149-.148v-.076c.149-.074.225-.225.374-.373l.15-.154z"/><path fill="#ca4a3f" d="M50.78 102.449c-.896-1.121-1.569-2.391-2.092-3.734-1.494.148-2.764.447-3.959.746a32.513 32.513 0 0 1-5.006 4.109c-.448-.15-.822-.225-1.195-.373l-2.614 1.867h.074c.149.074.299.148.448.225h.075c.149.074.298.148.448.148v.074c.448.15.971.299 1.42.449h.074c2.765-1.793 6.65-3.213 12.253-3.586 0 .001 0 .075.074.075zM58.027 98.863c-1.42 1.346-3.063 2.539-4.856 3.436 1.569 0 3.138.076 4.558.299a1.651 1.651 0 0 0-.374.301c0-.076.075-.076.149-.15.448-.299.896-.672 1.27-.971.448-.375.822-.748 1.195-1.121.373-.373.747-.746 1.045-1.121-.895-.3-1.942-.524-2.987-.673z"/><path fill="#c8483f" d="M50.78 102.449c-.822-1.047-1.494-2.24-2.017-3.512a32.94 32.94 0 0 0-4.408.896c-1.419 1.42-2.988 2.615-4.632 3.736-.448-.15-.822-.225-1.195-.373l-2.614 1.867h.074c.149.074.299.148.448.225h.075c.149.074.298.148.448.148v.074c.448.15.971.299 1.42.449h.074c2.765-1.793 6.65-3.213 12.253-3.586l.074.076zM57.803 99.088c-1.42 1.27-2.988 2.391-4.707 3.211h.074c1.569 0 3.138.076 4.558.299-.224.15-.374.225-.523.375l-.672.447c.074 0 .149-.074.225-.148 1.27-.822 2.465-1.869 3.585-2.988.149-.15.374-.373.523-.598-.971-.225-2.017-.45-3.063-.598z"/><path fill="#c6483e" d="M50.78 102.449a17.497 17.497 0 0 1-1.942-3.213c-1.793.15-3.437.523-4.856.896-1.345 1.27-2.764 2.465-4.259 3.438-.448-.15-.822-.225-1.195-.373l-2.614 1.867h.074c.149.074.299.148.448.225h.075c.149.074.298.148.448.148v.074c.448.15.971.299 1.42.449h.074c2.765-1.793 6.65-3.213 12.253-3.586l.074.075zM57.579 99.236c-1.345 1.27-2.839 2.242-4.482 3.062h.074c1.569 0 3.138.076 4.558.299-.224.15-.374.225-.523.375-.224.148-.523.373-.747.521.075-.074.075-.074.149-.074v-.074c.449-.225.822-.523 1.271-.822v-.074c.224-.15.373-.299.598-.449.149-.148.374-.299.523-.447.074 0 .074 0 .074-.074.15-.15.375-.299.523-.449l.523-.523c.075 0 .075-.074.075-.074.149-.148.298-.299.448-.447 0 0 0-.074.075-.074-1.048-.226-2.019-.451-3.139-.676z"/><path fill="#c6453e" d="M50.78 102.449c-.672-.896-1.345-1.943-1.793-2.988-2.017.225-3.81.598-5.379 1.045a30.324 30.324 0 0 1-3.885 3.064c-.448-.15-.822-.225-1.195-.373l-2.614 1.793v.074h.074c.149.074.299.148.448.225h.075c.149.074.298.148.448.148v.074c.448.15.971.299 1.42.449h.074c2.765-1.793 6.65-3.213 12.253-3.586l.074.075zM57.28 99.461a16.603 16.603 0 0 1-4.258 2.914l.075-.076h.074c1.569 0 3.138.076 4.558.299a1.651 1.651 0 0 0-.374.301c.299-.225.598-.449.896-.748h.075c.598-.449 1.121-.971 1.644-1.494l.522-.523c-.971-.3-2.092-.448-3.212-.673z"/><path fill="#c4453d" d="M49.062 99.686c-2.241.225-4.184.672-5.902 1.27-1.12.971-2.241 1.793-3.437 2.615-.448-.15-.822-.225-1.195-.373l-1.494 1.045c-.374.299-.672.598-.971.896h.075c.074.074.224.074.299.15h.075c.149.074.298.148.448.148v.074c.448.15.971.299 1.42.449h.074c2.765-1.793 6.65-3.213 12.253-3.586-.599-.821-1.197-1.718-1.645-2.688zM53.096 102.299h.074c1.569 0 3.138.076 4.558.299a1.651 1.651 0 0 0-.374.301c1.046-.748 2.017-1.645 2.914-2.541-.971-.299-2.092-.523-3.212-.672-1.27 1.121-2.615 2.016-4.109 2.689.074 0 .074-.076.149-.076z"/><path fill="#c3433d" d="M49.21 99.91a34.67 34.67 0 0 0-6.574 1.418c-.896.822-1.942 1.57-2.914 2.242-.373-.076-.672-.225-.971-.299a13.558 13.558 0 0 0-2.465 1.941s.075 0 .149.076h.075c.149.074.298.148.448.148v.074c.448.15.971.299 1.42.449h.074c2.765-1.793 6.65-3.213 12.253-3.586-.597-.746-1.045-1.566-1.495-2.463zM56.757 99.91c-1.196.971-2.466 1.867-3.886 2.465h.075c.075 0 .075-.076.15-.076h.074c1.569 0 3.138.076 4.558.299-.149.15-.299.225-.448.375 0-.074.075-.074.075-.15h.075c.149-.148.299-.225.448-.373.075 0 .075 0 .149-.074.299-.225.672-.523 1.045-.822v-.074l.449-.449h.075c.149-.148.374-.299.523-.523-1.047-.225-2.167-.449-3.362-.598z"/><path fill="#c1433d" d="M49.361 100.209c-2.914.223-5.305.82-7.247 1.643-.822.598-1.569 1.195-2.391 1.719a9.91 9.91 0 0 1-.747-.225c-.971.598-1.793 1.27-2.54 1.943h.075c.149.074.298.148.448.148v.074c.448.15.971.299 1.42.449h.074c2.765-1.793 6.65-3.213 12.253-3.586a13.014 13.014 0 0 1-1.345-2.165zM56.533 100.133c-1.121.896-2.391 1.645-3.661 2.316 0 0 0-.074.075-.074s.075-.076.15-.076h.074c1.569 0 3.138.076 4.558.299-.149.076-.224.15-.374.225.374-.225.672-.447.971-.672.523-.449 1.046-.896 1.569-1.42a38.88 38.88 0 0 0-3.362-.598z"/><path fill="#bf413c" d="M53.096 102.299h.074c1.569 0 3.138.076 4.558.299-.149.076-.224.15-.299.225.821-.598 1.569-1.195 2.241-1.867a40.317 40.317 0 0 0-3.437-.598 23.47 23.47 0 0 1-3.437 2.092s.074-.074.149-.074c.076-.001.076-.077.151-.077zM50.706 102.375a17.467 17.467 0 0 1-1.271-1.943c-3.212.299-5.901 1.047-7.994 1.943-.598.447-1.195.822-1.719 1.195-.149-.076-.298-.076-.448-.15-1.046.598-1.868 1.271-2.615 1.943.523.225 1.121.447 1.718.598h.074c2.766-1.793 6.652-3.213 12.255-3.586z"/><path fill="#bf413c" d="M50.706 102.449l-1.121-1.793c-3.885.373-6.874 1.27-9.189 2.465l-.673.449c-.075 0-.075 0-.149-.076-1.046.6-1.942 1.271-2.765 1.943.523.225 1.046.373 1.569.523h.074c2.765-1.793 6.65-3.213 12.253-3.586a.446.446 0 0 1 .001.075zM55.935 100.582a15.902 15.902 0 0 1-2.839 1.717h.074c1.569 0 3.138.076 4.558.299-.149.15-.299.225-.448.301 0 0 .075 0 .149-.076l.075-.074c.149-.074.224-.15.374-.299.075 0 .075 0 .149-.074.149-.076.299-.225.448-.299v-.076c.299-.223.672-.521.972-.82-1.121-.3-2.242-.451-3.512-.599z"/><path fill="#be413b" d="M50.78 102.449a8.26 8.26 0 0 1-1.046-1.568c-6.126.598-10.086 2.465-12.7 4.631l1.345.449h.074c2.765-1.793 6.65-3.213 12.253-3.586l.074.074zM55.562 100.881a14.009 14.009 0 0 1-2.54 1.418h.149c1.569 0 3.138.076 4.558.299-.224.15-.374.225-.523.375l-.672.447c.747-.447 1.494-1.045 2.241-1.643l.448-.449a25.89 25.89 0 0 0-3.661-.447z"/><path fill="#bc3e3b" d="M52.573 102.523s0 .074-.075.074c.001.001.075.001.075-.074zM50.78 102.523l-.896-1.344c-6.051.521-10.011 2.314-12.626 4.408.374.148.748.297 1.121.373h.074c2.765-1.793 6.65-3.213 12.253-3.586 0 .001.074.075.074.149zM53.17 102.299c1.569 0 3.138.076 4.558.299a1.651 1.651 0 0 0-.374.301c.523-.449 1.121-.898 1.644-1.346a28.149 28.149 0 0 0-3.735-.447c-.748.447-1.495.895-2.317 1.27.075 0 .15-.076.15-.076l.074-.001z"/><path fill="#ba3c3a" d="M50.78 102.449c-.299-.299-.523-.672-.747-1.047-5.977.449-9.936 2.242-12.551 4.26.299.148.598.223.897.299h.074c2.765-1.793 6.65-3.213 12.253-3.586l.074.074zM54.889 101.328c-.597.373-1.12.672-1.718.971 1.569 0 3.138.076 4.558.299a1.651 1.651 0 0 0-.374.301c.299-.225.598-.449.896-.748h.075c.149-.15.299-.225.373-.373h.075a30.496 30.496 0 0 0-3.885-.45z"/><path fill="#b93c3a" d="M50.182 101.627c-5.827.449-9.787 2.166-12.476 4.109.224.074.448.148.672.225h.074c2.765-1.793 6.65-3.213 12.253-3.586-.149-.225-.373-.523-.523-.748zM53.17 102.299c1.569 0 3.138.076 4.558.299-.149.076-.224.15-.299.225.374-.299.747-.523 1.046-.822a30.534 30.534 0 0 0-3.96-.447c-.522.299-1.045.523-1.494.822l.075-.076.074-.001z"/><path fill="#b93c3a" d="M53.096 102.299h.074c1.569 0 3.138.076 4.558.299-.224.15-.374.225-.523.375l-.672.447a23.193 23.193 0 0 0 1.718-1.195 33.9 33.9 0 0 0-4.183-.447c-.374.223-.822.447-1.196.672 0 0 0-.074.075-.074.074-.001.074-.077.149-.077zM50.706 102.449c-.075-.225-.225-.373-.374-.598-5.752.447-9.712 2.018-12.402 3.959.15.074.299.15.449.15h.074c2.765-1.793 6.65-3.213 12.253-3.586v.075z"/><path fill="#b73939" d="M57.728 102.598l.224-.223c-1.345-.15-2.765-.299-4.333-.375-.149.15-.374.225-.522.299h.074c1.569 0 3.137.076 4.557.299zM50.855 102.523c-.149-.148-.225-.225-.299-.373-5.753.373-9.638 1.867-12.327 3.734 0 .076.075.076.149.076h.074c2.765-1.793 6.65-3.213 12.253-3.586.001.075.075.149.15.149z"/><path fill="#b53939" d="M38.453 105.961c0 .074.075.074.075.074.075 0 .224 0 .299.074-.15-.074-.224-.074-.374-.148z"/><path fill="#b53939" d="M55.71 103.943c.448-.299.972-.598 1.495-.971.149-.15.299-.225.523-.375-1.42-.223-2.988-.299-4.558-.299h-.074c-.075 0-.075.076-.15.076-.149.074-.224.148-.373.148-.075.074-.15.074-.224.15-.075 0-.225.074-.299.148-.075 0-.15 0-.224.076-.224.074-.374.148-.598.223-.075-.148-.225-.299-.299-.447-.075-.076-.075-.076-.075-.15-.075 0-.149-.074-.149-.148-5.603.373-9.488 1.793-12.253 3.586.15.074.225.074.374.148h.149v.076c.149 0 .224 0 .299.074h.299c.074.074.149.074.224.074.074 0 .149.074.224.074.075 0 .224.074.299.074h.224c.149.076.224.076.298.076.075 0 .225.074.299.074h.225a.567.567 0 0 0 .298.074h.299c.075.076.149.076.224.076h.299c.074 0 .224.074.298.074h.822c.075 0 .149 0 .149.074h1.867c.075 0 .149-.074.224-.074h.822c.149 0 .225-.074.299-.074h.149c.149 0 .299 0 .449-.076h.149c.075 0 .225 0 .374-.074h.149c.149 0 .225-.074.374-.074h.074c.15 0 .299-.076.449-.076h.074c.225-.074.375-.074.523-.148.149 0 .299-.074.523-.148.15 0 .299-.076.523-.15h.15c.149-.074.224-.074.374-.15h.149c.075-.074.224-.074.374-.148 0 0 .074 0 .149-.074.075 0 .225-.074.299-.074.075-.076.149-.076.224-.076.075-.074.224-.074.299-.148.074 0 .149-.074.224-.074.075-.076.149-.076.299-.15 0 0 .075 0 .149-.074.075 0 .224-.074.299-.15.075 0 .149 0 .224-.074.075 0 .149-.074.299-.148 0 0 .074 0 .149-.076.074 0 .224-.074.299-.148.075 0 .075 0 .149-.076.225-.148.449-.223.748-.373.002-.003.002-.078.076-.078z"/><path fill="#ca4a3f" d="M51.527 64.572c-.374.747-.597 1.644-.672 2.54 7.471 2.541 12.925 9.712 12.925 18.079 0 .896-.075 1.719-.225 2.615.971.448 1.868.673 2.69.523.149-1.045.224-2.092.224-3.138 0-9.637-6.276-17.78-14.942-20.619z"/><path fill="#ca4f45" d="M51.751 64.646c-.374.748-.598 1.645-.748 2.541 7.471 2.614 12.776 9.712 12.776 18.004 0 .822-.075 1.57-.149 2.316.971.522 1.867.672 2.615.448a16.61 16.61 0 0 0 .224-2.765c0-9.561-6.127-17.63-14.718-20.544z"/><path fill="#cb5448" d="M52.05 64.722c-.448.747-.672 1.643-.822 2.54 7.321 2.689 12.551 9.712 12.551 17.93 0 .673-.075 1.42-.149 2.093.971.448 1.867.597 2.689.373.075-.822.149-1.644.149-2.466.001-9.414-6.05-17.483-14.418-20.47z"/><path fill="#cc5a4a" d="M52.274 64.795a9.236 9.236 0 0 0-.822 2.541C58.625 70.1 63.78 77.048 63.78 85.191c0 .599-.075 1.196-.075 1.793.971.523 1.868.598 2.615.299.075-.673.149-1.42.149-2.093 0-9.337-5.902-17.331-14.195-20.395z"/><path fill="#cf5f4e" d="M52.499 64.871a8.96 8.96 0 0 0-.822 2.614c7.098 2.765 12.104 9.638 12.104 17.706 0 .523 0 1.046-.075 1.57.971.447 1.868.522 2.689.149 0-.598.075-1.121.075-1.719-.001-9.264-5.828-17.183-13.971-20.32z"/><path fill="#ce6352" d="M52.797 65.021c-.448.747-.747 1.568-.897 2.54 6.948 2.839 11.879 9.638 11.879 17.631 0 .449 0 .896-.075 1.271 1.046.449 1.942.523 2.689.075 0-.449.075-.896.075-1.346.001-9.19-5.677-16.959-13.671-20.171z"/><path fill="#ce6555" d="M53.021 65.095c-.448.747-.747 1.569-.897 2.54 6.874 2.914 11.655 9.637 11.655 17.556 0 .374 0 .673-.075 1.046 1.046.448 1.942.448 2.689-.15.075-.298.075-.597.075-.896.001-9.039-5.602-16.809-13.447-20.096z"/><path fill="#cf695a" d="M53.245 65.169a6.844 6.844 0 0 0-.896 2.54c6.723 2.988 11.43 9.637 11.43 17.481v.748c.971.448 1.867.373 2.689-.225v-.523c.001-8.964-5.453-16.659-13.223-20.021z"/><path fill="#d06d5c" d="M53.544 65.319c-.523.747-.822 1.569-.971 2.465 6.574 2.988 11.207 9.712 11.207 17.407v.523c.971.373 1.942.299 2.689-.374v-.15a21.68 21.68 0 0 0-12.925-19.871z"/><path fill="#cf715f" d="M53.769 65.394c-.448.747-.822 1.568-.971 2.54 6.5 2.988 10.982 9.637 10.982 17.257v.225c1.046.374 1.942.299 2.689-.523-.15-8.667-5.304-16.063-12.7-19.499z"/><path fill="#d07462" d="M53.993 65.543a6.556 6.556 0 0 0-.971 2.465c6.35 3.063 10.758 9.563 10.758 17.108 1.046.375 1.942.225 2.614-.672-.225-8.367-5.229-15.539-12.401-18.901z"/><path fill="#d07866" d="M54.292 65.692a5.278 5.278 0 0 0-1.046 2.465 19.073 19.073 0 0 1 10.535 16.735c1.046.298 1.942.075 2.614-.897-.374-8.068-5.23-14.941-12.103-18.303z"/><path fill="#d17c68" d="M54.515 65.767a5.276 5.276 0 0 0-1.045 2.466c5.902 3.063 10.085 9.189 10.31 16.361 1.046.299 1.942.075 2.614-1.045a21.774 21.774 0 0 0-11.879-17.782z"/><path fill="#d2816c" d="M54.74 65.917c-.523.672-.896 1.494-1.121 2.466 5.828 3.063 9.787 8.964 10.161 15.913 1.046.298 1.942 0 2.54-1.196-.673-7.471-5.23-13.896-11.58-17.183z"/><path fill="#d3856f" d="M54.964 66.066c-.523.672-.896 1.419-1.121 2.391 5.604 3.062 9.488 8.815 9.861 15.539 1.046.3 1.942-.074 2.615-1.345-.821-7.172-5.229-13.298-11.355-16.585z"/><path fill="#d48872" d="M66.245 82.203c-.971-6.873-5.155-12.774-10.982-16.062-.599.672-.972 1.494-1.196 2.465 5.379 3.062 9.114 8.592 9.637 15.091 1.046.299 1.943-.149 2.541-1.494z"/><path fill="#d48a74" d="M66.169 81.755c-1.045-6.649-5.079-12.252-10.683-15.464-.523.672-.972 1.494-1.195 2.39 5.155 3.063 8.815 8.442 9.413 14.792 1.046.224 1.869-.224 2.465-1.718z"/><path fill="#cbab48" d="M37.333 77.646c0-4.034 3.287-7.321 7.321-7.321s7.321 3.287 7.321 7.321-3.287 7.322-7.321 7.322-7.321-3.288-7.321-7.322z"/><path fill="#6b7eae" d="M38.08 77.646c0-3.585 2.989-6.574 6.574-6.574 3.661 0 6.575 2.988 6.575 6.574a6.537 6.537 0 0 1-6.575 6.575c-3.586-.001-6.574-2.914-6.574-6.575z"/><path fill="#6b7eae" d="M39.051 77.347c0-3.287 2.69-5.976 5.976-5.976 3.288 0 5.977 2.689 5.977 5.976 0 3.288-2.689 5.977-5.977 5.977-3.286 0-5.976-2.69-5.976-5.977z"/><path fill="#7083b2" d="M39.424 77.272c0-3.138 2.615-5.752 5.752-5.752 3.138 0 5.678 2.615 5.678 5.752a5.676 5.676 0 0 1-5.678 5.678c-3.136 0-5.752-2.54-5.752-5.678z"/><path fill="#7787b4" d="M39.872 77.198c0-2.988 2.391-5.454 5.38-5.454 3.062 0 5.454 2.466 5.454 5.454s-2.391 5.453-5.454 5.453c-2.989 0-5.38-2.465-5.38-5.453z"/><path fill="#7e8cb6" d="M40.246 77.123c0-2.839 2.316-5.155 5.155-5.155s5.155 2.315 5.155 5.155c0 2.838-2.316 5.155-5.155 5.155s-5.155-2.317-5.155-5.155z"/><path fill="#8492bb" d="M40.62 77.048a4.926 4.926 0 0 1 4.931-4.931c2.689 0 4.931 2.241 4.931 4.931a4.926 4.926 0 0 1-4.931 4.931c-2.765 0-4.931-2.166-4.931-4.931z"/><path fill="#8b97bf" d="M40.993 76.974c0-2.54 2.091-4.632 4.632-4.632 2.615 0 4.707 2.092 4.707 4.632a4.687 4.687 0 0 1-4.707 4.706c-2.541 0-4.632-2.092-4.632-4.706z"/><path fill="#919dc2" d="M41.367 76.899c0-2.391 2.017-4.408 4.408-4.408 2.465 0 4.408 2.017 4.408 4.408a4.368 4.368 0 0 1-4.408 4.408c-2.392 0-4.408-1.942-4.408-4.408z"/><path fill="#99a2c6" d="M41.741 76.824c0-2.241 1.867-4.109 4.184-4.109 2.241 0 4.108 1.868 4.108 4.109 0 2.316-1.868 4.184-4.108 4.184a4.177 4.177 0 0 1-4.184-4.184z"/><path fill="#9fa9ca" d="M42.114 76.824c0-2.166 1.793-3.885 3.885-3.885a3.859 3.859 0 0 1 3.885 3.885c0 2.092-1.718 3.885-3.885 3.885-2.092-.001-3.885-1.793-3.885-3.885z"/><path fill="#a7afce" d="M42.562 76.75c0-2.017 1.569-3.661 3.586-3.661s3.661 1.644 3.661 3.661-1.644 3.586-3.661 3.586-3.586-1.569-3.586-3.586z"/><path fill="#aeb6d2" d="M42.936 76.675a3.348 3.348 0 0 1 3.362-3.362 3.348 3.348 0 0 1 3.362 3.362 3.348 3.348 0 0 1-3.362 3.362 3.348 3.348 0 0 1-3.362-3.362z"/><path fill="#b4bcd6" d="M43.309 76.6c0-1.719 1.345-3.138 3.063-3.138A3.157 3.157 0 0 1 49.51 76.6a3.157 3.157 0 0 1-3.138 3.137c-1.718 0-3.063-1.419-3.063-3.137z"/><path fill="#bdc4da" d="M43.683 76.525a2.837 2.837 0 0 1 2.839-2.838 2.838 2.838 0 1 1 0 5.678 2.838 2.838 0 0 1-2.839-2.84z"/><path fill="#c4cadf" d="M44.056 76.451c0-1.419 1.196-2.54 2.615-2.54a2.52 2.52 0 0 1 2.54 2.54c0 1.419-1.12 2.614-2.54 2.614-1.419 0-2.615-1.195-2.615-2.614z"/><path fill="#cdd1e2" d="M44.43 76.376a2.327 2.327 0 0 1 2.315-2.316c1.345 0 2.316 1.045 2.316 2.316 0 1.345-.971 2.316-2.316 2.316-1.269 0-2.315-.971-2.315-2.316z"/><path fill="#d5d9e8" d="M44.878 76.301a2.01 2.01 0 0 1 2.018-2.018c1.121 0 2.091.896 2.091 2.018a2.088 2.088 0 0 1-2.091 2.092c-1.122 0-2.018-.896-2.018-2.092z"/><path fill="#dfe2ec" d="M45.252 76.301c0-1.046.821-1.868 1.792-1.868.972 0 1.793.822 1.793 1.868 0 .971-.822 1.793-1.793 1.793a1.817 1.817 0 0 1-1.792-1.793z"/><path fill="#e9eaf2" d="M45.625 76.226c0-.896.672-1.568 1.494-1.568.897 0 1.569.672 1.569 1.568 0 .822-.672 1.495-1.569 1.495a1.499 1.499 0 0 1-1.494-1.495z"/><path fill="#f1f1f5" d="M45.999 76.152a1.26 1.26 0 0 1 1.27-1.271c.748 0 1.271.523 1.271 1.271a1.26 1.26 0 0 1-1.271 1.271c-.673-.001-1.27-.599-1.27-1.271z"/><path fill="#fff" d="M46.373 76.077a1.02 1.02 0 0 1 1.046-1.045c.523 0 1.046.448 1.046 1.045 0 .523-.523 1.046-1.046 1.046-.599 0-1.046-.523-1.046-1.046z"/><path fill="#cbab48" d="M48.314 94.754c0 .075-.075.149-.075.224 2.764-4.333 4.333-9.488 4.333-15.017A27.63 27.63 0 0 0 47.267 63.6c-.298 0-.672-.075-1.045-.075 3.586 4.558 5.677 10.235 5.677 16.436 0 9.265-4.706 17.482-11.878 22.337 3.586-3.734 5.752-8.74 5.752-14.269 0-9.338-6.126-17.182-14.568-19.797l-.897.672c8.368 2.316 14.568 10.011 14.568 19.125 0 2.69-.523 5.23-1.495 7.546.225-1.046.3-2.166.3-3.287 0-8.517-6.874-15.39-15.316-15.39-1.345 0-2.614.149-3.885.523a4.96 4.96 0 0 0-.374 1.12 13.384 13.384 0 0 1 4.258-.673c4.109 0 7.844 1.719 10.459 4.483-.075.448-.075.821-.075 1.195 0 3.959 1.495 7.47 3.885 10.16-.448 4.782-3.287 8.89-7.247 11.132h.075c.374.15.673.299 1.046.449 4.631-2.168 8.516-5.529 11.356-9.788-.075.074-.075.149-.15.224.748 3.735 2.764 7.022 5.604 9.413.224-.074.523-.225.747-.299a15.937 15.937 0 0 1-5.75-10.083zm-5.603-1.718v-.149.149zm-3.287-9.488v-.449c2.092 2.465 3.287 5.678 3.287 9.189v.449a14.518 14.518 0 0 1-3.287-9.189z"/><path fill="#c8a743" d="M45.7 83.174a2.52 2.52 0 0 1 2.54-2.54c1.345 0 2.54 1.121 2.54 2.54 0 1.345-1.195 2.466-2.54 2.466-1.42 0-2.54-1.121-2.54-2.466z"/><path fill="#cbab48" d="M45.774 83.174a2.488 2.488 0 0 1 2.465-2.466c1.345 0 2.466 1.121 2.466 2.466s-1.121 2.39-2.466 2.39c-1.343 0-2.465-1.045-2.465-2.39z"/><path fill="#cdad4f" d="M45.849 83.174a2.36 2.36 0 0 1 2.391-2.391c1.271 0 2.316 1.046 2.316 2.391a2.328 2.328 0 0 1-2.316 2.316c-1.344.001-2.391-1.046-2.391-2.316z"/><path fill="#ceaf54" d="M45.924 83.174a2.326 2.326 0 0 1 2.315-2.316c1.271 0 2.241 1.045 2.241 2.316a2.247 2.247 0 0 1-2.241 2.241c-1.269.001-2.315-1.045-2.315-2.241z"/><path fill="#d0b25b" d="M45.999 83.174c0-1.271 1.046-2.242 2.241-2.242s2.167.971 2.167 2.242c0 1.195-.972 2.167-2.167 2.167s-2.241-.971-2.241-2.167z"/><path fill="#d0b461" d="M46.073 83.174c0-1.195.971-2.167 2.167-2.167s2.092.972 2.092 2.167c0 1.121-.896 2.092-2.092 2.092s-2.167-.971-2.167-2.092z"/><path fill="#d3b869" d="M46.223 83.174c0-1.195.896-2.092 2.017-2.092s2.017.896 2.017 2.092a2.008 2.008 0 0 1-2.017 2.017 2.008 2.008 0 0 1-2.017-2.017z"/><path fill="#d3b869" d="M46.522 83.174a1.69 1.69 0 0 1 1.718-1.718c.897 0 1.718.746 1.718 1.718 0 .897-.821 1.644-1.718 1.644-.972 0-1.718-.747-1.718-1.644z"/><path fill="#d8bd62" d="M46.596 83.1c0-.897.747-1.643 1.644-1.643.897 0 1.644.746 1.644 1.643 0 .896-.747 1.644-1.644 1.644a1.66 1.66 0 0 1-1.644-1.644z"/><path fill="#ddc15d" d="M46.671 83.1c0-.897.748-1.643 1.569-1.643.897 0 1.644.746 1.644 1.643 0 .822-.747 1.569-1.644 1.569-.822-.001-1.569-.748-1.569-1.569z"/><path fill="#e2c655" d="M46.746 83.025c0-.822.673-1.494 1.494-1.494.897 0 1.569.672 1.569 1.494s-.672 1.569-1.569 1.569c-.822 0-1.494-.747-1.494-1.569z"/><path fill="#e5ca50" d="M46.82 83.025c0-.822.672-1.494 1.494-1.494s1.419.672 1.419 1.494c0 .747-.597 1.419-1.419 1.419-.821 0-1.494-.672-1.494-1.419z"/><path fill="#eacf47" d="M46.896 82.95c0-.748.597-1.419 1.419-1.419.747 0 1.419.672 1.419 1.419 0 .822-.672 1.419-1.419 1.419-.822.001-1.419-.597-1.419-1.419z"/><path fill="#efd23e" d="M46.97 82.95c0-.822.598-1.419 1.345-1.419s1.345.598 1.345 1.419a1.34 1.34 0 0 1-1.345 1.345 1.34 1.34 0 0 1-1.345-1.345z"/><path fill="#f0d961" d="M47.119 82.875c0-.747.523-1.27 1.195-1.27a1.26 1.26 0 0 1 1.271 1.27c0 .673-.598 1.196-1.271 1.196a1.18 1.18 0 0 1-1.195-1.196z"/><path fill="#f4df81" d="M47.268 82.801c0-.672.523-1.121 1.121-1.121s1.046.449 1.046 1.121c0 .598-.448 1.046-1.046 1.046s-1.121-.449-1.121-1.046z"/><path fill="#f5e59d" d="M47.418 82.651c0-.522.448-.896.971-.896.523 0 .972.374.972.896 0 .598-.449.971-.972.971-.522 0-.971-.373-.971-.971z"/><path fill="#f6ebbb" d="M47.643 82.577c0-.448.299-.822.822-.822a.83.83 0 0 1 .822.822c0 .523-.374.896-.822.896-.524 0-.822-.373-.822-.896z"/><path fill="#faf4da" d="M47.792 82.502a.67.67 0 0 1 .673-.672c.374 0 .672.299.672.672 0 .448-.299.747-.672.747-.375 0-.673-.299-.673-.747z"/><path fill="#fff" d="M47.941 82.427a.51.51 0 0 1 .523-.523c.298 0 .597.225.597.523a.59.59 0 0 1-.597.598c-.299 0-.523-.224-.523-.598z"/><path fill="#f2ca30" d="M25.703 117.314h-2.572v3.545h1.086v-1.418h1.153v-.775h-1.153v-.51h1.486v-.842zM27.342 117.314h-1.085v3.545h1.085v-3.545zM30.734 117.314h-2.571v3.545h1.086v-1.418h1.152v-.775h-1.152v-.51h1.485v-.842zM32.861 117.314h-1.13l-1.108 3.545h.887l.222-.709h.931l.2.709h1.108l-1.11-3.545zm-.377 2.082h-.576l.288-1.041.288 1.041zM35.432 117.314l.975 3.545h.909l.487-1.949.488 1.949h.931l.931-3.545h-.843l-.487 2.061-.532-2.061h-.842l-.488 2.061-.509-2.061h-1.02zM42.214 117.27c-.466 0-.82.154-1.087.354-.288.244-.598.688-.598 1.463 0 .6.177 1.064.531 1.42.311.287.688.398 1.153.398.598 0 .997-.223 1.218-.467.311-.309.465-.818.465-1.352 0-.643-.222-1.129-.531-1.418-.132-.111-.508-.398-1.151-.398zm0 .775c.154 0 .31.066.42.289.022.043.111.266.111.73 0 .488-.088.709-.111.754-.11.221-.266.311-.42.311-.156 0-.311-.09-.421-.311-.022-.045-.111-.266-.111-.754 0-.465.089-.688.111-.73.111-.223.266-.289.421-.289zM44.563 117.314v3.545h1.086v-1.33h.355l.509 1.33h1.219l-.687-1.529c.443-.154.62-.553.62-.953 0-.309-.11-.553-.266-.709-.311-.332-.82-.354-1.042-.354h-1.794zm1.086.776h.488c.111 0 .244.021.354.109.044.045.088.111.088.244 0 .09-.021.156-.11.244-.089.09-.222.09-.311.09h-.51v-.687h.001zM49.55 117.314h-1.086v3.545h2.482v-.841H49.55v-2.704zM51.544 117.314v3.545h1.374c.443 0 .887-.088 1.263-.488.266-.266.488-.73.488-1.285 0-.531-.177-1.018-.51-1.328-.421-.377-.887-.443-1.308-.443h-1.307v-.001zm1.086 2.725v-1.883h.155c.178 0 .399 0 .532.178.111.133.199.377.199.709 0 .154-.022.443-.155.709a.611.611 0 0 1-.532.287h-.199zM59.568 118.666a1.431 1.431 0 0 0-.421-.975c-.333-.355-.776-.422-1.108-.422s-.709.066-1.064.377c-.443.377-.576.908-.576 1.484 0 .311.044.643.199.953.178.354.577.82 1.441.82.487 0 .842-.156 1.086-.398.199-.178.398-.51.443-.953l-.998-.045a.675.675 0 0 1-.11.355c-.067.154-.178.266-.399.266-.2 0-.333-.111-.421-.311-.089-.199-.089-.443-.089-.732 0-.244 0-1.041.51-1.041.2 0 .487.111.487.666l1.02-.044zM60.166 117.314v2.348c0 .334.045.688.399.977.222.133.554.266 1.064.266.311 0 .709-.045 1.02-.289.377-.311.377-.73.377-1.02v-2.281h-.887v2.281c0 .156 0 .289-.11.4-.089.109-.222.133-.333.133-.11 0-.243-.023-.332-.133-.111-.111-.111-.244-.111-.4v-2.281h-1.087v-.001zM63.867 117.314v3.545h1.086v-1.285h.51c.377 0 .909-.021 1.219-.531.155-.244.177-.51.177-.6 0-.553-.31-.82-.532-.93-.333-.199-.709-.199-1.042-.199h-1.418zm1.086 1.463v-.688h.399a.59.59 0 0 1 .333.109.474.474 0 0 1 .088.244c0 .111-.044.199-.111.244-.11.09-.266.09-.31.09h-.399v.001z"/><path fill="#cc2229" d="M46.27 122.654c.2.023.399.045.599.066.2.023.421.023.643.023s.244 0 .465-.023l.599-.066v.223c-.311.045-.532.133-.643.266-.111.111-.155.377-.155.797l-.089 6.627c0 .754-.133 1.352-.399 1.773-.288.398-.465.666-1.13.998l-.133-.244c.377-.199.665-.488.82-.82.155-.332.222-.887.222-1.662v-6.672c0-.42-.045-.686-.155-.797-.111-.133-.333-.221-.643-.266v-.223h-.001z"/><path fill="#33348e" d="M42.369 124.008c.089 0 .178.021.289.021.088.021.2.021.333.021h.244c.066-.021.133-.021.177-.021.022.109.066.221.089.332.044.088.066.199.111.311l1.484 3.855c.089.178.155.311.244.398.088.09.177.135.288.156v.133c-.133-.021-.244-.045-.355-.045-.088-.021-.199-.021-.288-.021-.111 0-.222 0-.333.021-.133 0-.244.023-.354.045v-.133c.133-.021.222-.045.266-.088.066-.045.089-.09.089-.178 0-.045 0-.09-.022-.133 0-.045-.022-.111-.044-.178l-.531-1.307h-2.017l-.466 1.195c-.044.111-.066.178-.088.244 0 .088-.022.133-.022.178 0 .088.044.133.088.178.067.043.177.066.311.088v.133c-.111-.021-.222-.045-.333-.045-.111-.021-.222-.021-.31-.021-.111 0-.222 0-.311.021-.111 0-.222.023-.354.045v-.133a.51.51 0 0 0 .354-.221c.111-.111.221-.311.333-.621l1.352-3.391c.044-.111.066-.199.088-.268.022-.088.022-.133.022-.199s-.022-.133-.066-.176a1.081 1.081 0 0 0-.266-.068v-.128h-.002zm.687.574l-.909 2.283h1.795l-.886-2.283zM36.562 124.029h3.635c.022.199.022.398.044.553.022.178.044.355.067.51h-.111c-.067-.287-.155-.486-.244-.576-.111-.088-.355-.154-.731-.154h-1.729v1.949h1.13c.244 0 .399-.043.465-.088a.66.66 0 0 0 .155-.355h.133c-.021.135-.021.244-.044.334v.51c.022.111.022.221.044.354h-.133c-.021-.154-.088-.287-.155-.332-.066-.066-.222-.111-.465-.111h-1.13v2.217H39.2c.465 0 .775-.045.909-.154.133-.133.222-.355.288-.709h.133a3.93 3.93 0 0 0-.089.576c-.022.199-.022.398-.022.643h-3.856v-.133a.594.594 0 0 0 .354-.156c.066-.066.089-.221.089-.465v-3.68c0-.244-.023-.398-.089-.465-.066-.066-.177-.111-.354-.156v-.112h-.001z"/><path fill="#33348e" d="M36.518 123.984h3.723v.045c0 .088.022.199.022.287 0 .09 0 .178.022.266 0 .09.022.178.022.244.022.09.044.178.044.244l.022.066h-.222v-.045c-.022-.133-.066-.242-.111-.354a.321.321 0 0 0-.133-.199c-.044-.045-.133-.066-.244-.09a2.398 2.398 0 0 0-.443-.043h-1.685v1.861h1.086c.133 0 .222-.023.288-.023.088-.021.133-.043.155-.066a.472.472 0 0 0 .088-.109.659.659 0 0 0 .044-.223l.022-.021h.199v.043c0 .068-.022.111-.022.178 0 .045-.023.111-.023.156v.51c0 .066.023.111.023.178 0 .043.022.109.022.176v.045h-.199l-.022-.021c0-.09-.022-.156-.044-.223-.022-.043-.066-.088-.088-.111a.37.37 0 0 0-.155-.066c-.066 0-.155-.021-.288-.021h-1.086v2.127H39.2c.244 0 .421 0 .576-.043a.842.842 0 0 0 .311-.111.778.778 0 0 0 .155-.244 1.85 1.85 0 0 0 .111-.443l.022-.021h.2v.045a1.116 1.116 0 0 0-.044.287c-.022.09-.045.178-.045.289-.021.088-.021.199-.021.311v.375H36.52v-.221h.044c.067-.021.155-.021.199-.066.044-.023.089-.045.111-.066s.044-.066.066-.156c.022-.066.022-.176.022-.287v-3.68c0-.221-.022-.377-.089-.42-.022-.045-.066-.066-.111-.09-.044-.021-.132-.043-.199-.066h-.044v-.204h-.001zm.088.088v.045c.066.021.133.045.177.066.067.023.133.045.155.09.067.066.111.242.111.486v3.68c0 .133-.022.221-.022.311a.424.424 0 0 1-.089.199.486.486 0 0 1-.155.088 1.238 1.238 0 0 1-.177.066v.045h3.768v-.287c0-.111.022-.223.022-.334.022-.088.022-.199.044-.287 0-.09.023-.156.044-.223h-.044a4.172 4.172 0 0 1-.132.4.697.697 0 0 1-.178.287c-.066.066-.177.111-.333.133a4.006 4.006 0 0 1-.598.045H37.47V126.6h1.152c.133 0 .244 0 .31.021.089 0 .155.045.2.066.022.045.066.09.089.156.021.045.044.111.066.199h.044c0-.066-.022-.111-.022-.154 0-.066-.021-.111-.021-.156v-.154-.111-.133-.133c0-.045.021-.111.021-.178 0-.021.022-.066.022-.133h-.044a1.141 1.141 0 0 1-.066.199c-.022.066-.067.111-.089.154-.044.045-.111.066-.2.09-.066 0-.177.021-.31.021H37.47v-2.016h1.751c.177 0 .332 0 .465.021a.486.486 0 0 1 .288.133.623.623 0 0 1 .155.223c.022.088.067.199.089.332h.044c0-.066-.022-.133-.022-.199-.022-.09-.044-.156-.044-.244 0-.09-.022-.199-.022-.289v-.244h-3.568v.001zM32.152 124.029h2.105c.465 0 .864.109 1.13.332.289.221.421.531.421.932 0 .375-.155.709-.488.951-.333.268-.753.4-1.286.443.421.443.82.932 1.219 1.42.376.486.576.73.576.73.089.088.156.156.222.178.088.045.177.045.311.066v.133c-.111-.021-.222-.021-.289-.021H35.475a29.82 29.82 0 0 0-1.972-2.395c-.177-.178-.244-.266-.244-.287 0-.023 0-.045.044-.066h.288c.532 0 .953-.111 1.241-.289.288-.199.443-.465.443-.82 0-.354-.133-.598-.377-.754-.266-.133-.731-.221-1.396-.221h-.421v4.1c0 .244.022.4.089.465a.574.574 0 0 0 .354.156v.133c-.11-.021-.222-.045-.333-.045s-.244-.021-.376-.021c-.111 0-.244.021-.354.021-.111 0-.222.023-.311.045v-.133a.571.571 0 0 0 .333-.156c.066-.064.088-.221.088-.465v-3.701c0-.244-.022-.398-.088-.465s-.177-.111-.333-.156v-.11h.002z"/><path fill="#33348e" d="M32.108 123.984h2.149c.244 0 .465.023.643.088.2.045.377.135.51.244.155.133.267.266.333.422.066.154.11.354.11.555 0 .199-.044.375-.133.553a1.366 1.366 0 0 1-.377.443 1.604 1.604 0 0 1-.576.311 2.831 2.831 0 0 1-.643.111l.576.643c.199.244.399.488.576.73.177.199.333.4.443.533.089.133.155.199.155.221v-.021c.022.045.066.066.088.088.044.045.089.066.111.066a.305.305 0 0 0 .133.045c.044 0 .088.021.155.021h.044v.223l-.044-.023H36.073c-.044 0-.088 0-.133-.021h-.177c-.022 0-.067.021-.088.021h-.222l-.022-.021c-.311-.422-.621-.82-.953-1.219s-.665-.797-1.02-1.174c-.066-.09-.133-.156-.177-.201-.045-.043-.067-.088-.067-.109 0-.023 0-.045.022-.066 0 0 .022-.023.045-.023.021-.021.044-.021.088-.021h.221c.266 0 .51-.023.709-.066.199-.066.377-.133.51-.223a.878.878 0 0 0 .31-.332.774.774 0 0 0 .111-.443c0-.178-.022-.311-.089-.42a.658.658 0 0 0-.266-.289 1.509 1.509 0 0 0-.533-.154 4.411 4.411 0 0 0-.842-.066h-.376v4.055c0 .133 0 .223.021.289 0 .088.022.133.044.154.044.021.067.066.133.09.044.021.11.043.199.043l.022.023v.199h-.044c-.044-.023-.088-.023-.155-.023-.045-.021-.111-.021-.156-.021-.066 0-.133 0-.177-.021h-.377c-.044.021-.11.021-.177.021-.044 0-.111 0-.155.021-.066 0-.111 0-.155.023h-.044v-.199l.021-.023a.45.45 0 0 0 .2-.043c.066-.023.111-.068.133-.09.022-.021.044-.066.044-.154.022-.066.022-.156.022-.289v-3.701c0-.221-.022-.377-.066-.42-.022-.045-.067-.066-.133-.09a1.154 1.154 0 0 0-.2-.066h-.021v-.204h.005zm.066.088v.045c.088.021.155.045.199.066a.361.361 0 0 1 .155.09c.066.066.089.242.089.486v3.701c0 .133 0 .244-.022.311-.022.09-.044.154-.066.199-.044.023-.089.066-.155.09a1.2 1.2 0 0 1-.199.066v.043c.044-.021.088-.021.11-.021.067 0 .133-.021.178-.021H33.194c.044 0 .111.021.178.021.022 0 .066 0 .111.021v-.043a1.168 1.168 0 0 1-.199-.066.338.338 0 0 1-.134-.09c-.044-.045-.066-.109-.088-.199-.022-.066-.022-.178-.022-.311v-4.121h.465c.332 0 .621 0 .865.043.221.045.421.09.554.178.133.066.222.178.288.311s.111.287.111.465-.044.332-.111.488a1.079 1.079 0 0 1-.354.354 1.438 1.438 0 0 1-.532.223 3.614 3.614 0 0 1-.731.088h-.265c-.022 0-.022 0-.022.023 0 0 .022.021.045.066.044.043.11.109.177.199.354.354.687.754 1.02 1.152.333.398.643.797.931 1.219H36.212c.044 0 .066 0 .111.021v-.043c-.045-.023-.089-.023-.133-.023-.045-.021-.111-.021-.133-.043-.044-.023-.089-.045-.133-.09-.044-.021-.066-.045-.11-.088v-.021s-.066-.068-.155-.178c-.089-.111-.222-.289-.443-.555a16.263 16.263 0 0 0-.576-.73c-.199-.223-.421-.467-.621-.688l-.066-.066h.088a3.12 3.12 0 0 0 .709-.133c.199-.066.399-.156.554-.289.155-.133.266-.266.354-.42.066-.156.111-.334.111-.51 0-.201-.022-.377-.088-.512a1.402 1.402 0 0 0-.311-.398c-.133-.109-.288-.176-.487-.244a2.745 2.745 0 0 0-.621-.066h-2.088zM27.032 126.488c0-.754.222-1.373.687-1.838.443-.488.998-.732 1.685-.732s1.263.266 1.707.799c.465.531.687 1.195.687 1.994 0 .73-.222 1.352-.687 1.84-.443.486-.998.73-1.685.73s-1.241-.266-1.707-.797c-.443-.533-.687-1.197-.687-1.996zm2.305-2.215c-.532 0-.976.176-1.308.576-.354.375-.51.885-.51 1.484 0 .73.177 1.33.576 1.816.377.51.842.754 1.396.754.532 0 .976-.199 1.308-.576.333-.377.51-.887.51-1.506 0-.711-.199-1.309-.576-1.818-.399-.487-.864-.73-1.396-.73z"/><path fill="#33348e" d="M26.988 126.488c0-.377.067-.73.178-1.041a2.5 2.5 0 0 1 .51-.842c.221-.244.487-.422.775-.555.288-.111.621-.178.953-.178.354 0 .665.066.953.199.288.135.554.334.798.6.222.287.399.576.51.93.111.334.177.709.177 1.109 0 .377-.066.709-.177 1.02a2.516 2.516 0 0 1-.51.842 2.108 2.108 0 0 1-.776.555c-.288.133-.62.199-.953.199-.354 0-.665-.066-.953-.199a2.589 2.589 0 0 1-.776-.621 2.52 2.52 0 0 1-.532-.908 3.543 3.543 0 0 1-.177-1.11zm.089 0c0 .377.066.754.177 1.086.111.311.266.621.487.887.244.244.488.443.753.576.289.133.599.199.931.199s.643-.066.909-.176c.288-.135.532-.311.754-.533.221-.244.398-.51.51-.818.111-.311.155-.645.155-.998 0-.4-.066-.754-.177-1.086s-.266-.621-.487-.887a2.026 2.026 0 0 0-.754-.576 2.122 2.122 0 0 0-.931-.199c-.332 0-.643.045-.909.176a1.96 1.96 0 0 0-.753.533c-.221.244-.376.51-.487.797-.112.31-.178.642-.178 1.019zm2.26-2.172c-.266 0-.51.045-.709.133-.222.09-.399.223-.577.422a2.034 2.034 0 0 0-.376.643 3.04 3.04 0 0 0-.111.82c0 .354.044.688.133.975a2.6 2.6 0 0 0 .421.82c.2.244.399.443.643.555.222.133.465.178.731.178.266 0 .51-.045.709-.135.222-.088.399-.242.576-.42.155-.199.288-.398.377-.643a3.459 3.459 0 0 0-.023-1.819 2.827 2.827 0 0 0-.443-.797 1.818 1.818 0 0 0-.62-.555c-.221-.132-.465-.177-.731-.177zm0-.087c.266 0 .532.066.775.178.244.133.443.332.643.576.2.266.355.531.443.842.111.311.155.643.155.998a2.7 2.7 0 0 1-.133.863 2.498 2.498 0 0 1-.377.666 1.59 1.59 0 0 1-.599.441 1.632 1.632 0 0 1-.753.156 1.55 1.55 0 0 1-.775-.199c-.244-.111-.465-.311-.665-.555-.177-.266-.333-.531-.421-.842a2.984 2.984 0 0 1-.155-1.02c0-.311.044-.6.133-.842a2.3 2.3 0 0 1 .376-.688c.178-.178.377-.332.599-.443.222-.087.466-.131.754-.131z"/><path fill="#cc2229" d="M50.857 124.516l-.931 2.35h1.84l-.909-2.35zm-.709-.598c.088.021.199.045.288.045.111.021.222.021.355.021h.266c.044-.021.11-.021.155-.021.044.109.066.221.11.332.022.111.066.221.111.311l1.53 3.967c.066.178.133.311.221.398.088.09.199.156.31.156v.154c-.133-.021-.244-.045-.354-.066h-.665c-.11.021-.222.045-.354.066v-.154a.512.512 0 0 0 .288-.066c.066-.045.089-.111.089-.199 0-.045 0-.068-.022-.135 0-.043-.022-.109-.044-.176l-.554-1.33h-2.061l-.487 1.219c-.022.111-.066.178-.066.266-.022.066-.044.111-.044.156 0 .088.044.154.111.199a.512.512 0 0 0 .288.066v.154c-.11-.021-.221-.045-.332-.066h-.643c-.111.021-.222.045-.355.066v-.154a.634.634 0 0 0 .377-.201c.11-.133.222-.332.332-.643l1.374-3.479c.045-.111.089-.223.089-.289.022-.066.044-.133.044-.199s-.022-.133-.088-.178a1.233 1.233 0 0 0-.266-.066v-.154h-.003zm3.546 5.363v-.133c.177-.045.288-.088.354-.154.067-.068.088-.244.088-.488v-3.789c0-.244-.021-.422-.088-.488-.066-.066-.177-.111-.354-.156v-.109h1.817c.665 0 1.152.133 1.507.42.377.289.554.688.554 1.197 0 .465-.177.842-.488 1.131-.31.287-.731.443-1.218.443-.267 0-.51-.045-.71-.133-.221-.066-.332-.156-.332-.223 0-.021 0-.021.021-.045.022-.021.022-.021.045-.021s.044.021.111.021c.221.068.421.09.621.09.398 0 .731-.111.997-.355.266-.221.399-.51.399-.887 0-.398-.155-.709-.465-.951-.31-.223-.731-.334-1.263-.334h-.643v4.189c0 .244.044.42.089.488.066.066.2.109.354.154v.133a1.386 1.386 0 0 0-.332-.045c-.111-.021-.244-.021-.377-.021-.111 0-.244 0-.355.021-.11 0-.221.024-.332.045zm5.563-4.765l-.909 2.35h1.817l-.908-2.35zm-.687-.598c.089.021.178.045.266.045.111.021.221.021.355.021h.266c.066-.021.111-.021.177-.021.022.109.044.221.088.332.022.111.067.221.111.311l1.529 3.967c.066.178.155.311.222.398.088.09.199.156.332.156v.154c-.155-.021-.266-.045-.376-.066h-.643c-.133.021-.244.045-.377.066v-.154c.133 0 .244-.023.288-.066.067-.045.089-.111.089-.199 0-.045 0-.068-.022-.135 0-.043-.022-.109-.044-.176l-.554-1.33h-2.062l-.465 1.219a2.069 2.069 0 0 0-.089.266c-.022.066-.022.111-.022.156 0 .088.022.154.088.199.067.043.155.066.311.066v.154c-.133-.021-.244-.045-.354-.066h-.643l-.332.066v-.154a.578.578 0 0 0 .354-.201c.111-.133.222-.332.333-.643l1.374-3.479c.044-.111.088-.223.111-.289 0-.066.022-.133.022-.199s-.022-.133-.089-.178a1.213 1.213 0 0 0-.267-.066l.023-.154zm3.524 5.363v-.133c.177-.045.288-.088.354-.154.066-.068.088-.244.088-.488v-3.812c0-.244-.022-.398-.088-.465-.067-.09-.178-.133-.354-.178v-.133c.111.021.199.045.31.045.088.021.177.021.266.021h.244c.066-.021.133-.021.221-.045l3.015 4.479v-3.725c0-.244-.044-.42-.089-.486-.066-.068-.199-.111-.376-.156l.022-.133c.11.021.199.045.31.045.111.021.199.021.311.021.088 0 .199 0 .31-.021.111 0 .2-.023.311-.045l.022.133c-.2.045-.311.088-.377.156-.066.066-.088.242-.088.486v4.543h-.356l-3.258-4.764v4.033c0 .244.044.398.111.488.066.066.177.109.354.154v.133c-.11-.021-.222-.045-.332-.045-.111-.021-.2-.021-.311-.021-.089 0-.177 0-.288.021-.111.001-.221.025-.332.046z"/><path fill="#cc2229" d="M62.138 129.215h.111c.066-.021.111-.021.177-.021.044 0 .088-.023.155-.023H62.869c.066 0 .111.023.155.023s.11 0 .177.021h.111v-.045c-.066-.021-.133-.021-.2-.066a.34.34 0 0 1-.155-.088c-.022-.045-.066-.111-.066-.199-.022-.09-.022-.178-.022-.311v-4.033l.066-.023 3.236 4.766h.288v-4.521c0-.133 0-.244.022-.311.022-.088.044-.154.088-.199.022-.045.088-.066.155-.111a.461.461 0 0 1 .2-.043v-.045h-.133c-.044.023-.111.023-.155.023s-.111.021-.155.021h-.31c-.044 0-.111-.021-.155-.021s-.111 0-.155-.023h-.133v.045c.088 0 .155.021.199.043.066.045.11.066.155.111.067.066.111.244.111.51v3.725l-.088.021-2.993-4.455c-.022 0-.066.023-.088.023h-.111c-.044.021-.066.021-.111.021h-.266c-.044 0-.088-.021-.155-.021-.044 0-.088 0-.133-.023h-.111v.045c.067.021.133.043.2.066.066.021.111.066.133.088.088.09.111.244.111.51v3.812c0 .133 0 .244-.022.311-.022.088-.044.154-.088.199-.022.045-.066.066-.133.088-.067.045-.133.045-.2.066v.044z"/><path fill="#cc2229" d="M62.049 129.326v-.223h.045c.066-.021.155-.043.199-.066.066-.021.088-.043.133-.088.022-.023.044-.066.044-.133.022-.09.022-.178.022-.311v-3.812c0-.244-.022-.377-.066-.443-.044-.043-.066-.066-.133-.088-.044-.023-.133-.045-.199-.066h-.045v-.223l.045.023c.066 0 .111 0 .155.021h.155c.044.021.088.021.133.021h.377c.022-.021.066-.021.111-.021.022 0 .066 0 .088-.021h.044v.021l2.948 4.344v-3.568c0-.244-.023-.398-.089-.443-.022-.043-.066-.066-.111-.088a2.151 2.151 0 0 0-.221-.066h-.023V123.873l.045.023c.044 0 .11 0 .155.021h.155a.454.454 0 0 0 .155.021h.31c.044 0 .088 0 .155-.021h.155c.044-.021.11-.021.155-.021l.044-.023v.178l.022.045h-.042a2.151 2.151 0 0 0-.221.066c-.045.021-.089.045-.111.088-.044.023-.066.066-.066.133-.022.09-.022.178-.022.311v4.588h-.442l-3.17-4.676v3.9c0 .133.022.221.022.287.022.09.044.133.067.156.022.045.066.066.133.088.044.023.11.045.199.066h.045v.223l-.045-.023c-.066 0-.11 0-.177-.021h-.155c-.044-.021-.111-.021-.155-.021H62.584c-.067 0-.111 0-.155.021h-.155c-.066.021-.11.021-.177.021l-.048.023zM53.739 129.215h.111c.066-.021.11-.021.177-.021.044 0 .111-.023.177-.023h.377c.066 0 .133.023.178.023.066 0 .133 0 .177.021h.132v-.045c-.088-.021-.154-.021-.199-.066a.345.345 0 0 1-.155-.088c-.044-.045-.066-.111-.088-.199 0-.066-.022-.178-.022-.311v-4.232h.687c.266 0 .51.021.731.088.222.045.399.133.554.266.155.111.289.244.355.422.088.154.133.354.133.553 0 .201-.044.355-.111.51a1.363 1.363 0 0 1-.31.422 1.596 1.596 0 0 1-.466.266c-.155.066-.354.09-.554.09-.111 0-.199 0-.311-.023a17.71 17.71 0 0 1-.332-.066c-.022 0-.044-.021-.066-.021h-.044v.021c0 .023.022.045.067.066.044.045.132.09.221.133v-.021a.917.917 0 0 0 .333.088c.133.023.244.045.377.045.243 0 .465-.045.664-.111.2-.066.377-.176.532-.311.155-.154.266-.311.333-.486.088-.178.133-.377.133-.621s-.044-.465-.133-.664-.221-.355-.399-.51c-.354-.268-.843-.422-1.485-.422h-1.772v.066l.199.066c.044.021.111.045.133.09.066.088.111.242.111.51v3.789c0 .133 0 .244-.022.311-.022.088-.044.154-.089.199-.022.045-.088.066-.133.088-.066.045-.133.045-.199.066v.042h-.002z"/><path fill="#cc2229" d="M53.65 129.326v-.223h.044c.066-.021.133-.043.199-.066a.426.426 0 0 0 .133-.088c.022-.023.044-.066.044-.133.022-.09.022-.178.022-.311v-3.789c0-.244-.022-.4-.067-.443-.044-.045-.088-.066-.133-.09l-.199-.066h-.043v-.199h1.861c.665 0 1.175.133 1.552.422a1.5 1.5 0 0 1 .398.531c.089.221.133.443.133.709 0 .244-.022.465-.111.643a1.44 1.44 0 0 1-.377.531 1.918 1.918 0 0 1-.554.334 2.242 2.242 0 0 1-.687.111c-.133 0-.267-.023-.377-.045a1.666 1.666 0 0 1-.354-.09.76.76 0 0 1-.244-.133c-.066-.043-.111-.088-.111-.133 0-.021.022-.045.045-.066 0-.021.021-.021.021-.021.022-.023.022-.023.045-.023 0 0 .022 0 .044.023H55a.913.913 0 0 0 .332.066c.089.021.177.021.289.021.199 0 .377-.021.531-.088a1.08 1.08 0 0 0 .443-.244c.111-.111.222-.244.267-.377.066-.154.11-.311.11-.488 0-.199-.044-.377-.11-.51a1.162 1.162 0 0 0-.333-.398 2.001 2.001 0 0 0-.531-.266 3.46 3.46 0 0 0-.709-.066h-.599v4.145c0 .133.022.221.022.311a.402.402 0 0 0 .066.133c.022.045.066.066.111.088.066.023.133.045.222.066h.022v.223l-.044-.023c-.044 0-.11 0-.155-.021h-.177c-.045-.021-.111-.021-.178-.021h-.377c-.067 0-.11 0-.177.021h-.177c-.044.021-.111.021-.155.021l-.043.022z"/><path fill="#33348e" d="M23.043 130.412v-.133c.177-.045.288-.09.354-.156.066-.088.111-.244.111-.51v-5.984c0-.266-.044-.441-.111-.508s-.177-.135-.354-.178v-.133l.332.066h.775c.133-.023.244-.045.355-.066v.133c-.177.043-.311.111-.376.178-.067.066-.089.242-.089.508v5.984c0 .266.022.422.089.51.066.066.199.111.376.156v.133c-.111-.023-.222-.023-.355-.045-.11 0-.244-.021-.376-.021-.133 0-.266.021-.399.021-.11.022-.221.022-.332.045zm6.693 2.483c-1.751-1.773-3.745-4.234-5.651-6.561.931-1.131 1.618-1.795 2.416-3.014.044-.066.066-.111.066-.178 0-.045-.022-.088-.089-.111-.066-.045-.177-.066-.31-.088v-.133c.111.021.266.021.399.043.155 0 .311.023.465.023.156 0 .31-.023.443-.023.133-.021.244-.021.355-.043v.133c-.266.043-.533.221-.798.486l-.044.045-2.261 2.77c.577.844 4.92 6.605 5.94 6.539h.044v.154c-.022 0-.066-.021-.133-.021-.287-.021-.554-.021-.842-.021z"/><path fill="#33348e" d="M22.999 130.455v-.199l.022-.021a.531.531 0 0 0 .222-.045c.066-.043.111-.066.133-.088.044-.045.066-.09.066-.178.022-.066.022-.178.022-.311v-5.984c0-.133 0-.242-.022-.332 0-.066-.022-.133-.066-.154-.022-.021-.066-.066-.133-.088-.045-.023-.133-.045-.222-.068l-.022-.021v-.178h.045c.044 0 .11.023.154.023a.583.583 0 0 0 .178.021c.066 0 .133.021.199.021h.4c.066 0 .133-.021.177-.021.066 0 .133 0 .178-.021.066 0 .11-.023.177-.023h.022v.178l-.022.021a2.91 2.91 0 0 0-.222.068.437.437 0 0 0-.133.088c-.021.021-.044.088-.044.154-.022.09-.044.199-.044.332v2.66c.289-.332.554-.621.776-.908.576-.643 1.086-1.219 1.64-2.084.022-.021.044-.043.044-.088 0-.021.022-.045.022-.066s-.022-.021-.022-.045c-.022-.021-.044-.021-.066-.043a.164.164 0 0 0-.111-.045c-.066-.023-.111-.023-.199-.045h-.022v-.199h.044a.646.646 0 0 0 .2.021.59.59 0 0 0 .199.023.874.874 0 0 0 .222.021H27.257c.088 0 .155 0 .222-.021.066 0 .133 0 .177-.023.066 0 .111 0 .178-.021h.044v.199h-.023c-.155.021-.266.09-.398.156a2.598 2.598 0 0 0-.399.332s0 .021-.022.021l-.022.021-2.238 2.748c.376.578 2.238 3.037 3.812 4.787.909.998 1.729 1.73 2.083 1.73h.066l.021.021v.177h-.176c-.155-.023-.288-.023-.421-.023-.133-.021-.266 0-.421 0h-.021c-1.574-1.617-3.347-3.744-5.054-5.85-.199-.223-.398-.467-.598-.711v3.236c0 .133.022.244.044.311 0 .088.022.133.044.178a.464.464 0 0 1 .133.088.643.643 0 0 0 .222.045l.022.021v.199l-.022-.021c-.067 0-.111 0-.177-.021h-.178c-.066-.023-.11-.023-.177-.023h-.4c-.067 0-.133 0-.199.023h-.178c-.044.021-.11.021-.154.021l-.048.024zm.066-.088c.044 0 .088 0 .132-.021h.178c.066-.023.133-.023.199-.023h.4c.066 0 .133 0 .177.023h.2c.044.021.088.021.133.021v-.066c-.089-.021-.155-.045-.222-.066-.067-.021-.111-.066-.155-.088-.022-.045-.066-.111-.066-.199-.022-.09-.022-.201-.022-.334v-5.984c0-.133 0-.242.022-.332 0-.088.044-.154.066-.199.044-.043.088-.066.155-.111.066-.021.133-.043.222-.064v-.068c-.045 0-.089.023-.133.023-.067 0-.134.021-.2.021-.044 0-.11 0-.177.023h-.4c-.066-.023-.133-.023-.199-.023s-.111-.021-.178-.021c-.044 0-.088-.023-.132-.023v.068c.088.021.155.043.222.064.066.045.11.068.133.111a.414.414 0 0 1 .088.199c.022.09.022.199.022.332v5.984c0 .133 0 .244-.022.334a.414.414 0 0 1-.088.199c-.022.021-.066.066-.133.088s-.133.045-.222.066v.066zm7.646 2.395z"/><path fill="#f2ca30" d="M39.51 115.408h-3.391v-.688c.244-.223.465-.422.687-.621s.443-.398.643-.598c.421-.422.709-.754.865-.998.133-.266.221-.531.221-.797 0-.133-.022-.244-.066-.355s-.111-.199-.199-.266a1.392 1.392 0 0 0-.311-.156 2.056 2.056 0 0 0-.377-.043c-.11 0-.244.021-.398.043-.133.023-.244.066-.377.111-.111.045-.2.09-.288.133-.111.066-.178.111-.244.133h-.045v-.709c.155-.066.376-.133.643-.199s.532-.088.776-.088c.51 0 .909.111 1.197.354.288.266.443.6.443 1.02 0 .199-.022.377-.066.533a2.309 2.309 0 0 1-.222.465 2.787 2.787 0 0 1-.333.443c-.11.133-.266.266-.398.422-.222.221-.488.465-.775.709-.289.242-.511.443-.688.576h2.704v.576h-.001zM43.832 111.596a2.346 2.346 0 0 0-1.396-.555 1.6 1.6 0 0 0-.731.156c-.2.109-.399.242-.554.443-.244.309-.377.752-.399 1.285 0 .488.177.908.466 1.197.31.332.753.531 1.197.531.931.021 1.33-.73 1.751-1.529a8.56 8.56 0 0 1 .221-.422c.333-.598.665-1.174 1.086-1.617.465-.465 1.02-.775 1.729-.799.753 0 1.352.289 1.772.732.466.488.709 1.174.709 1.885a2.454 2.454 0 0 1-.709 1.816c-.465.465-1.108.754-1.751.73a2.757 2.757 0 0 1-.953-.266c-.31-.154-.621-.354-.842-.576l.532-.553c.155.176.399.332.643.441.222.111.466.178.643.178a1.54 1.54 0 0 0 1.197-.486c.288-.311.487-.754.487-1.285 0-.512-.177-.998-.51-1.354-.288-.311-.687-.51-1.219-.486-.466 0-.865.221-1.175.553-.354.377-.665.91-.975 1.463-.066.111-.133.244-.222.377-.532 1.02-1.042 1.994-2.438 1.973-.643-.021-1.264-.311-1.729-.775a2.386 2.386 0 0 1-.665-1.75c0-.711.222-1.287.554-1.707.222-.311.509-.533.842-.688a2.462 2.462 0 0 1 1.063-.223c.599.023 1.241.244 1.84.688l-.464.623zM53.539 115.408h-3.391v-.688c.244-.223.465-.422.687-.621s.421-.398.643-.598c.421-.422.687-.754.842-.998.155-.266.244-.531.244-.797a.648.648 0 0 0-.089-.355.601.601 0 0 0-.199-.266c-.066-.066-.177-.111-.288-.156-.111-.021-.244-.043-.377-.043s-.266.021-.398.043a1.869 1.869 0 0 0-.377.111c-.111.045-.2.09-.311.133a1.433 1.433 0 0 1-.222.133h-.044v-.709c.155-.066.354-.133.643-.199.266-.066.532-.088.775-.088.51 0 .909.111 1.197.354.289.266.443.6.443 1.02 0 .199-.022.377-.088.533a1.496 1.496 0 0 1-.199.465c-.089.154-.2.289-.333.443a7.115 7.115 0 0 0-.399.422c-.244.221-.488.465-.776.709-.288.242-.509.443-.687.576h2.704v.576z"/></g></svg>