<svg id="Qatar_logo_footer" data-name="Qatar logo footer" xmlns="http://www.w3.org/2000/svg" width="113" height="32" viewBox="0 0 113 32">
  <path id="Path_3018" data-name="Path 3018" d="M223.949,233.46c.141-.007.361-.046.579-.046s.494.04.614.046c-.355-.76-.872-1.943-1.17-2.626-.282-.658-.753-1.755-1.128-2.828a.958.958,0,0,1-.25.039.976.976,0,0,1-.261-.039,35.036,35.036,0,0,1-1.434,3.433l-.908,2.021a2.371,2.371,0,0,1,.352-.046,2.746,2.746,0,0,1,.377.046,17.449,17.449,0,0,1,.626-1.7c.313-.015.627-.031.943-.031.335,0,.665.016,1,.031l.328.833Zm-.886-2.186c-.243.016-.478.032-.72.032-.274,0-.539-.024-.815-.032l.8-1.927Z" transform="translate(-202.319 -202.86)" fill="#fff"/>
  <path id="Path_3019" data-name="Path 3019" d="M231.527,229.971c0,1.341,0,2.635-.087,3.566.174-.007.393-.046.566-.046s.367.039.547.046c-.062-.634-.078-1.481-.078-2.648a26.468,26.468,0,0,1,.087-2.727,4.708,4.708,0,0,1-.556.047c-.118,0-.41-.031-.557-.047a16.273,16.273,0,0,1,.078,1.809" transform="translate(-208.04 -202.937)" fill="#fff"/>
  <path id="Path_3020" data-name="Path 3020" d="M237.312,228.584c.118-.009.408-.039.556-.039a1.177,1.177,0,0,1,.73.2.906.906,0,0,1,.329.814,1.015,1.015,0,0,1-1.075,1.083c-.2,0-.391-.017-.541-.025Zm1.286,2.289a1.481,1.481,0,0,0,1.364-1.449,1.221,1.221,0,0,0-.361-.879,1.613,1.613,0,0,0-1.23-.383c-.182,0-1.09.039-1.293.039a7.431,7.431,0,0,1-.784-.039c.055,1.011.055,1.12.055,2.147,0,1.513-.009,1.684-.07,3.229a4.142,4.142,0,0,1,.539-.047,5.027,5.027,0,0,1,.527.047c0-.2-.033-1.214-.033-1.442v-1.113h.189c.422.6.909,1.287,1.308,1.9.119.18.291.47.408.65a3.641,3.641,0,0,1,.636-.047,5.921,5.921,0,0,1,.7.047c-.494-.619-.706-.892-1.325-1.764-.118-.164-.29-.423-.407-.587Z" transform="translate(-210.463 -202.937)" fill="#fff"/>
  <path id="Path_3021" data-name="Path 3021" d="M246.766,231.7c-.366-1.089-.878-2.618-1.119-3.542a3.459,3.459,0,0,1-.547.047c-.19,0-.456-.031-.612-.047.319.847.6,1.6.806,2.194.362,1.019.6,1.726.878,2.588l.2.595a1.809,1.809,0,0,1,.322-.046,1.226,1.226,0,0,1,.3.046c.124-.407.273-.909.385-1.23.3-.893.343-1.019.744-2.132l.235-.651c.086.251.235.651.32.9s.486,1.443.58,1.71c.128.352.158.454.449,1.4a2.812,2.812,0,0,1,.335-.046,1.55,1.55,0,0,1,.315.046c.3-.932.329-1.025.768-2.281.431-1.223.7-1.919,1.168-3.095a1.4,1.4,0,0,1-.354.047,1.365,1.365,0,0,1-.359-.047c-.283,1.018-.423,1.513-.649,2.186-.371,1.1-.418,1.223-.644,1.819-.251-.674-.494-1.357-.721-2.046-.127-.377-.605-1.943-.611-1.959a1.363,1.363,0,0,1-.348.047,1.871,1.871,0,0,1-.342-.047c-.237.956-1.068,3.261-1.146,3.471l-.195.511Z" transform="translate(-214.572 -202.937)" fill="#fff"/>
  <path id="Path_3022" data-name="Path 3022" d="M262.618,233.46c.14-.007.359-.046.58-.046s.494.04.611.046c-.353-.76-.87-1.943-1.168-2.626-.283-.658-.753-1.755-1.129-2.828a.93.93,0,0,1-.25.039.963.963,0,0,1-.26-.039,35.171,35.171,0,0,1-1.434,3.433l-.908,2.021a2.4,2.4,0,0,1,.352-.046,2.749,2.749,0,0,1,.376.046,17.519,17.519,0,0,1,.628-1.7c.313-.015.627-.031.94-.031.337,0,.666.016,1,.031l.331.833Zm-.887-2.186c-.242.016-.477.032-.721.032-.273,0-.54-.024-.815-.032l.8-1.927Z" transform="translate(-221.656 -202.86)" fill="#fff"/>
  <path id="Path_3023" data-name="Path 3023" d="M270.216,231.439a.592.592,0,0,1,.1-.251c.33-.565.635-1.154.988-1.718.117-.187.69-1.1.807-1.308a.9.9,0,0,1-.328.047,2.441,2.441,0,0,1-.456-.047,22.087,22.087,0,0,1-1.356,2.648c-.666-1.168-.964-1.786-1.372-2.648a3.874,3.874,0,0,1-.643.047,6.167,6.167,0,0,1-.643-.047c.407.682,1.075,1.765,1.474,2.453l.462.8c0,.485-.024,1.512-.047,2.123.15-.015.368-.047.527-.047.18,0,.36.032.54.047-.032-.729-.054-1.151-.054-1.811Z" transform="translate(-225.984 -202.937)" fill="#fff"/>
  <path id="Path_3024" data-name="Path 3024" d="M277.59,232.3a3.043,3.043,0,0,1-.182.885,3.185,3.185,0,0,0,1.467.4,1.755,1.755,0,0,0,1.989-1.716,1.564,1.564,0,0,0-.382-1.035,2.482,2.482,0,0,0-1.066-.573c-.688-.265-1.089-.422-1.089-.994a.829.829,0,0,1,.924-.848.983.983,0,0,1,1.027.682h.109a3.736,3.736,0,0,1,.242-.744,2.852,2.852,0,0,0-1.3-.321c-1.418,0-1.828.878-1.828,1.567a1.352,1.352,0,0,0,.989,1.387c.219.1.589.237.807.33a.97.97,0,0,1-.384,1.882c-.464,0-.855-.119-1.215-.9Z" transform="translate(-231.029 -202.875)" fill="#fff"/>
  <path id="Path_3025" data-name="Path 3025" d="M199.572,211.146a17.7,17.7,0,0,1,2.611-1.458l-5.315-3.294c3.269-1.15,5.315-4.066,5.315-8.041,0-5.642-4.3-8.041-8.7-8.041-4.75,0-8.843,2.633-8.843,8.606a8,8,0,0,0,2.258,5.667,8.56,8.56,0,0,0,6.514,2.375c.259,0,.517,0,.775-.023Zm-11.71-12.111c0-5.926,3.174-7.524,5.574-7.524,3.856,0,5.526,3.2,5.526,6.608a9.494,9.494,0,0,1-1.2,5.268,5.129,5.129,0,0,1-4.3,2.373c-4.351,0-5.6-4.139-5.6-6.725" transform="translate(-184.64 -184.082)" fill="#fff"/>
  <path id="Path_3026" data-name="Path 3026" d="M234.937,206.584c.424-.024,1.082-.143,1.739-.143s1.483.12,1.836.143c-1.06-2.282-2.612-5.832-3.505-7.879-.847-1.976-2.258-5.268-3.386-8.489a2.5,2.5,0,0,1-1.527,0,106.854,106.854,0,0,1-4.305,10.3l-2.728,6.069a6.69,6.69,0,0,1,1.059-.143,7.7,7.7,0,0,1,1.129.143,51.116,51.116,0,0,1,1.883-5.1c.939-.046,1.88-.094,2.82-.094,1.011,0,2,.048,3.01.094l.988,2.494Zm-2.658-6.561c-.729.047-1.434.095-2.163.095-.823,0-1.623-.071-2.444-.095l2.4-5.785Z" transform="translate(-203.864 -184.03)" fill="#fff"/>
  <path id="Path_3027" data-name="Path 3027" d="M259.726,194.9c0-.894.022-1.788.045-2.636,1.623,0,3.292.026,4.68.167a4.551,4.551,0,0,1-.119-.847,6.237,6.237,0,0,1,.119-.893c-2.258.117-4.327.14-6.279.14-1.809,0-4.42-.024-6.279-.14a3.266,3.266,0,0,1,0,1.74c1.2-.118,3.458-.167,3.67-.167h1.174c.025.918.047,1.742.047,2.612l.023,6.559c0,1.788-.141,3.6-.235,5.387a15.449,15.449,0,0,1,1.6-.143c.282,0,1.036.072,1.718.143a25.15,25.15,0,0,1-.164-3.222Z" transform="translate(-218.284 -184.264)" fill="#fff"/>
  <path id="Path_3028" data-name="Path 3028" d="M287.074,206.584c.421-.024,1.079-.143,1.739-.143s1.482.12,1.834.143c-1.06-2.282-2.61-5.832-3.5-7.879-.846-1.976-2.26-5.268-3.387-8.489a2.752,2.752,0,0,1-.752.12,2.8,2.8,0,0,1-.778-.12,105.249,105.249,0,0,1-4.3,10.3l-2.727,6.069a6.686,6.686,0,0,1,1.057-.143,7.694,7.694,0,0,1,1.13.143,51.182,51.182,0,0,1,1.881-5.1c.94-.046,1.88-.094,2.821-.094,1.011,0,2,.048,3.01.094l.987,2.494Zm-2.658-6.561c-.728.047-1.434.095-2.162.095-.825,0-1.624-.071-2.448-.095l2.4-5.785Z" transform="translate(-229.949 -184.03)" fill="#fff"/>
  <path id="Path_3029" data-name="Path 3029" d="M314.064,191.955c.353-.021,1.221-.116,1.669-.116a3.569,3.569,0,0,1,2.187.588,2.733,2.733,0,0,1,.987,2.446,3.038,3.038,0,0,1-3.222,3.244c-.612,0-1.176-.048-1.622-.069Zm3.856,6.868c2.141-.4,4.091-1.741,4.091-4.35a3.658,3.658,0,0,0-1.081-2.633,4.834,4.834,0,0,0-3.692-1.152c-.54,0-3.268.117-3.88.117a22.508,22.508,0,0,1-2.353-.117c.167,3.034.167,3.362.167,6.443,0,4.538-.025,5.053-.212,9.688a12.168,12.168,0,0,1,1.621-.143,14.486,14.486,0,0,1,1.577.143c0-.613-.094-3.646-.094-4.328v-3.338h.565c1.27,1.786,2.728,3.856,3.927,5.713.352.542.869,1.412,1.221,1.953a11.08,11.08,0,0,1,1.905-.143,17.516,17.516,0,0,1,2.092.143c-1.481-1.859-2.114-2.681-3.972-5.292-.353-.494-.871-1.269-1.223-1.764Z" transform="translate(-247.833 -184.264)" fill="#fff"/>
  <path id="Path_3030" data-name="Path 3030" d="M309.434,229.383v3.309H308.2v-3s-.253.1-.6.249-1.59.664-1.59,1.348v.791h1.269v.616h-3.012c0-.146.006-.359.006-.671a1.541,1.541,0,0,0-1.589-1.523H299.2a1.414,1.414,0,0,0-1.07.316v-2.547s-.541.381-.942.685,0,.508,0,.508v3.232h-1.14l-.025-2.774s-.794.579-1.022.756-.1.332.151.332c0,0-.046,2.05-.046,2.532a.867.867,0,0,1-1.248.789s-.268.051-.045.254a1.2,1.2,0,0,0,.79.356,1.381,1.381,0,0,0,1.394-1.4h14.354v-5.172s-.846.558-1.018.71-.125.333.1.307M303.35,232.1c0,.15-.009.4-.015.595H298.13v-.914c.137-.352.367-.393.723-.393h3.8c.821,0,.694.431.694.713m3.925-.686h-.6c0-.328.6-.508.6-.508Zm3.7-2.331c-.175.152-.125.332.1.306v4.157h.919v-5.174s-.848.559-1.018.711m-3.429-.1c.321,0,.544-.125.544-.379s-.149-.434-.544-.434c-.35,0-.444.153-.444.434s.119.379.444.379m-1.241,0c.322,0,.548-.125.548-.379s-.148-.434-.548-.434c-.349,0-.443.153-.443.434s.124.379.443.379m-14.01,4.9c-.35,0-.445.15-.445.432s.126.382.445.382.547-.127.547-.382-.147-.432-.547-.432m-1.243,0c-.348,0-.445.15-.445.432s.123.382.445.382.548-.127.548-.382-.148-.432-.548-.432m-1.81-4.819c.324,0,.543-.127.543-.382s-.15-.434-.543-.434c-.354,0-.445.154-.445.434s.122.382.445.382m-1.195,0c.318,0,.546-.127.546-.382s-.151-.434-.546-.434c-.354,0-.448.154-.448.434s.122.382.448.382m5.8,1.414a7.013,7.013,0,0,0-.958.669c-.371.328.075.452.075.452v1.105h-2.8v-3.869s-1.023.941-1.118,1.066.244.253.244.253l-.056.366a10.167,10.167,0,0,0-.9.546c-.492.33-.856.752-.856,1.044s-.124,1.441-.124,1.441h6.5Zm-4.586,2.227H288.3s-.132-.595.219-.822a6.172,6.172,0,0,1,.747-.408Z" transform="translate(-236.056 -202.937)" fill="#fff"/>
  <path id="Path_3031" data-name="Path 3031" d="M344.257,197.741c1.4,0,3.456-.02,5.793-.056.416-.471.868-.962,1.364-1.47-2.894-.05-5.5-.077-7.157-.077-1.164,0-2.107.359-2.107.8s.943.8,2.107.8m3.7,2.545c.344-.473.744-1,1.2-1.559-2.055-.03-3.856-.045-5.118-.045-1.186,0-2.147.367-2.147.817s.961.817,2.147.817c1.006,0,2.366-.011,3.913-.03m.146,5.073c-.284-.276-1.237-1.373-1.355-1.48-.694-.005-1.321-.009-1.84-.009-1.094,0-1.983.339-1.983.756s.889.754,1.983.754c.839,0,1.938-.008,3.2-.022m-1.721-2.511a1.5,1.5,0,0,1,.293-.619c-.024.032-.04.057-.012.009.153-.259.356-.584.606-.964-1.173-.011-2.2-.019-3.008-.019-1.164,0-2.107.359-2.107.8s.943.8,2.107.8c.6,0,1.314,0,2.122-.011m4.025,8.934c0,.206.352.375.786.375,2.235,0,9.041-.169,9.041-.375s-6.8-.372-9.041-.372c-.434,0-.786.169-.786.372m8.989-2.353c-3.809-.129-8.989-.213-11.328-.213-.762,0-1.381.236-1.381.526s.62.526,1.381.526c2.451,0,8.023-.092,11.867-.233-.179-.193-.359-.4-.538-.606m-2.01-2.738c-4.252-.112-8.922-.179-11.291-.179-.971,0-1.758.3-1.758.67s.787.667,1.758.667c2.493,0,7.538-.076,11.962-.2-.223-.316-.449-.641-.671-.963m8.452-12.383a1.454,1.454,0,0,1-.136.311,6.64,6.64,0,0,0,2-.249,5.812,5.812,0,0,0-1.817-.237Zm-14.646-6.723c2.236,0,9.041-.167,9.041-.372s-6.806-.373-9.041-.373c-.434,0-.786.166-.786.373s.352.372.786.372m13.566,4.024c-.3.155-.587.308-.873.462a9.289,9.289,0,0,0,2.405-.257,4.759,4.759,0,0,0-1.533-.2M344.9,195.126c1.748,0,4.6-.033,7.708-.09q.671-.639,1.429-1.3c-3.643-.074-7.124-.118-9.136-.118-1.094,0-1.983.338-1.983.754s.889.754,1.983.754m18.725,1.414a9.369,9.369,0,0,0,1.56.73,13.331,13.331,0,0,0,3.282-.331,24.389,24.389,0,0,0-4.842-.4m-16.947-7.285c0,.291.62.526,1.381.526,2.353,0,7.578-.084,11.393-.215.285-.2.572-.4.85-.59-3.849-.148-9.711-.245-12.243-.245-.762,0-1.381.235-1.381.525m-.591,3.229c2.059,0,5.855-.051,9.6-.136q.639-.512,1.333-1.031c-4.155-.1-8.633-.169-10.937-.169-.971,0-1.758.3-1.758.669s.787.668,1.758.668m9.532,11.717a7.688,7.688,0,0,1-2.065.425,4.155,4.155,0,0,0-2.1.688c1.581-.027,3.257-.06,4.912-.1l-.463-.68a2.233,2.233,0,0,0-.269-.338l-.019.005" transform="translate(-263.413 -182.338)" fill="#fff"/>
  <path id="Path_3032" data-name="Path 3032" d="M373.957,194.427c.016.407.013.811-.008,1.207-3.96.157-7.712.395-7.712.663s3.669.5,7.581.655c-.068.452-.156.9-.265,1.329-3.857.158-7.437.39-7.437.65s3.341.478,7.042.636a13.3,13.3,0,0,1-.578,1.37c-3.178.153-5.806.356-5.806.578s2.3.4,5.189.548c-.163.265-.331.523-.51.768q-.282.4-.609.79c-1.808.138-3.049.293-3.049.46,0,.145.889.279,2.257.4a13.062,13.062,0,0,1-2.674,2.032,21.312,21.312,0,0,1-2.238-2.288c-.9-1.1-2.816-3.995-3.268-4.643s-.747-.839-1.274-.65a7.043,7.043,0,0,1-1.782.375c-.253,0-.39-.1.033-.267a5.927,5.927,0,0,0,2.913-2.583,6.713,6.713,0,0,0,.11-4.36,3.185,3.185,0,0,1-1.013,1.856,3.984,3.984,0,0,0-.641-3.192l-.346,1.588s-.218-.01-.752.44a2.253,2.253,0,0,0-.684,1.107c.422.17.93-.252.93-.252a20.305,20.305,0,0,1-2.252,5.431,3.86,3.86,0,0,1-1.913,1.709c-.572.23-.76-.039-.76-.039a10.534,10.534,0,0,1-1.264-1.3s-.031-.055.076-.053c.278,0,.772-.472.881-.67.125-.225.11-.4.049-.411s-.168.17-.7.508-.781.1-.96-.085c-.137-.148,0-.335.084-.45s2.909-5.37,10.39-10.9c9.8-7.252,16.064-9.209,16.421-9.35.237-.094.622-.216.712-.126a.354.354,0,0,1,.131.3c-.012.118-.075.178-.528.379a85.635,85.635,0,0,0-10.651,6.023,51.018,51.018,0,0,0-6.107,3.68c-.236.146-.062.359.081.27,5.181-3.445,11.261-5.79,17.974-7.713.322-.091.5-.091.553-.021a.5.5,0,0,1,.092.266c.011.123-.091.188-.368.3q-10.82,4.016-15.951,7.463s-.356.214-.361.461c0,.092.19.1.19.1,1.714.031,4,.132,5.09.2,0,0-.155.55-1.2,1a5.481,5.481,0,0,1-2.288.293.2.2,0,0,0-.172.34c.066.087,1.635,2.612,7.338,3.188" transform="translate(-268.676 -177.874)" fill="#fff"/>
</svg>
